<svg width="17" height="16" viewBox="0 0 17 16" fill="none" xmlns="http://www.w3.org/2000/svg">
<path d="M1.0625 6.92934H13.6638L9.80687 2.25833C9.62653 2.03954 9.53976 1.75748 9.56567 1.47419C9.59157 1.1909 9.72802 0.929595 9.945 0.747748C10.162 0.565902 10.4417 0.478415 10.7227 0.504533C11.0036 0.530652 11.2628 0.668237 11.4431 0.887021L16.7556 7.31502C16.7914 7.36615 16.8233 7.41986 16.8513 7.47572C16.8513 7.52928 16.8512 7.56142 16.9256 7.61499C16.9738 7.73783 16.999 7.86859 17 8.00067C16.999 8.13275 16.9738 8.26351 16.9256 8.38635C16.9256 8.43992 16.9256 8.47206 16.8513 8.52562C16.8233 8.58148 16.7914 8.63519 16.7556 8.68632L11.4431 15.1143C11.3432 15.2353 11.2181 15.3325 11.0767 15.3992C10.9353 15.4658 10.7811 15.5003 10.625 15.5C10.3767 15.5005 10.1362 15.4133 9.945 15.2536C9.83741 15.1637 9.74848 15.0532 9.68329 14.9286C9.61811 14.8039 9.57795 14.6675 9.56512 14.5272C9.55229 14.3869 9.56704 14.2454 9.60852 14.1108C9.65001 13.9763 9.71741 13.8513 9.80687 13.743L13.6638 9.072H1.0625C0.780708 9.072 0.510456 8.95913 0.311199 8.75822C0.11194 8.5573 0 8.2848 0 8.00067C0 7.71653 0.11194 7.44404 0.311199 7.24312C0.510456 7.04221 0.780708 6.92934 1.0625 6.92934Z" fill="white"/>
</svg>
