<svg width="1440" height="5512" viewBox="0 0 1440 5512" fill="none" xmlns="http://www.w3.org/2000/svg">
<g clip-path="url(#clip0_6574_2480)">
<g opacity="0.7">
<g filter="url(#filter0_f_6574_2480)">
<path d="M325.508 4485.13C21.5626 4550.66 -208.19 5249.08 -297.196 4836.26C-386.202 4423.44 425.63 4119.64 729.576 4054.11C1033.52 3988.58 693.44 4807.53 782.445 5220.35C871.451 5633.17 629.454 4419.6 325.508 4485.13Z" fill="#5B68DF"/>
</g>
<g filter="url(#filter1_f_6574_2480)">
<path d="M635.044 3598.52C356.047 3658.67 -686.254 4932.09 -748.124 4645.13C-809.993 4358.17 -277.345 4653.03 1.6521 4592.88C280.649 4532.72 200.344 4140.34 262.213 4427.3C324.083 4714.26 914.041 3538.37 635.044 3598.52Z" fill="#809FB4"/>
</g>
<g filter="url(#filter2_f_6574_2480)">
<path d="M-176.32 4164.26C-259.004 3938.12 -439.055 3922.36 -212.912 3839.67C13.2318 3756.99 263.586 3873.29 346.27 4099.43C428.954 4325.57 312.657 4575.93 86.5134 4658.61C-139.63 4741.3 -93.6359 4390.4 -176.32 4164.26Z" fill="url(#paint0_linear_6574_2480)"/>
</g>
<g filter="url(#filter3_f_6574_2480)">
<path d="M779.633 4388.53C607.407 4425.66 -85.068 4077.4 -866.476 5707.88C-903.609 5535.65 -47.9852 3745.79 124.242 3708.65C296.468 3671.52 466.188 3781.04 503.32 3953.26C540.453 4125.49 951.86 4351.4 779.633 4388.53Z" fill="url(#paint1_linear_6574_2480)" fill-opacity="0.3"/>
</g>
</g>
<g opacity="0.7">
<g filter="url(#filter4_f_6574_2480)">
<path d="M1141.66 340.323C1141.66 520.591 1509.42 736.146 1264.57 736.146C1019.73 736.146 946.756 238.92 946.756 58.6516C946.756 -121.617 1369.34 171.193 1614.18 171.193C1859.02 171.193 1141.66 160.055 1141.66 340.323Z" fill="#5B68DF"/>
</g>
<g filter="url(#filter5_f_6574_2480)">
<path d="M677 56.557C677 222.028 1271.34 968.353 1101.15 968.353C930.955 968.353 1163.15 702.505 1163.15 537.034C1163.15 371.563 930.955 369.128 1101.15 369.128C1271.34 369.128 677 -108.914 677 56.557Z" fill="#809FB4"/>
</g>
<g filter="url(#filter6_f_6574_2480)">
<path d="M1025.02 569.432C1025.02 709.033 1119.92 753.46 980.322 753.46C840.722 753.46 727.554 640.292 727.554 500.692C727.554 361.091 840.722 247.923 980.322 247.923C1119.92 247.923 1025.02 429.832 1025.02 569.432Z" fill="url(#paint2_linear_6574_2480)"/>
</g>
<g filter="url(#filter7_f_6574_2480)">
<path d="M1142.4 71.1437C1142.4 173.29 860.412 523.194 1689 1165.29C1586.85 1165.29 677 461.657 677 359.51C677 257.363 759.806 174.557 861.953 174.557C964.099 174.557 1142.4 -31.0029 1142.4 71.1437Z" fill="url(#paint3_linear_6574_2480)" fill-opacity="0.3"/>
</g>
</g>
<g opacity="0.7">
<g filter="url(#filter8_f_6574_2480)">
<path d="M-36.9998 1933.42C176.638 1831.42 224.021 1273.63 362.549 1563.8C501.078 1853.96 -46.8997 2221.77 -260.537 2323.76C-474.175 2425.76 -366.254 1759.29 -504.783 1469.12C-643.312 1178.96 -250.637 2035.41 -36.9998 1933.42Z" fill="#5B68DF"/>
</g>
<g filter="url(#filter9_f_6574_2480)">
<path d="M-110.394 2644.64C85.7072 2551.02 633.91 1424.39 730.205 1626.09C826.499 1827.79 380.065 1703.02 183.964 1796.65C-12.1378 1890.27 116.352 2166.82 20.0581 1965.13C-76.2359 1763.43 -306.496 2738.26 -110.394 2644.64Z" fill="#809FB4"/>
</g>
<g filter="url(#filter10_f_6574_2480)">
<path d="M300.513 1942.02C465.955 1863.03 464.911 1725.43 543.896 1890.87C622.88 2056.31 552.792 2254.46 387.351 2333.44C221.909 2412.42 23.7626 2342.34 -55.2218 2176.9C-134.206 2011.45 135.072 2021 300.513 1942.02Z" fill="url(#paint4_linear_6574_2480)"/>
</g>
<g filter="url(#filter11_f_6574_2480)">
<path d="M-356.427 2084.83C-235.372 2027.04 338.85 2163.26 630.996 818C688.789 939.055 369.693 2415.44 248.638 2473.23C127.583 2531.03 -17.402 2479.74 -75.1954 2358.69C-132.989 2237.63 -477.482 2142.63 -356.427 2084.83Z" fill="url(#paint5_linear_6574_2480)" fill-opacity="0.3"/>
</g>
</g>
<g opacity="0.7">
<g filter="url(#filter12_f_6574_2480)">
<path d="M1382.87 3734.17C1078.92 3799.7 849.171 4498.12 760.165 4085.3C671.16 3672.48 1482.99 3368.68 1786.94 3303.15C2090.88 3237.62 1750.8 4056.56 1839.81 4469.39C1928.81 4882.21 1686.82 3668.63 1382.87 3734.17Z" fill="#5B68DF"/>
</g>
<g filter="url(#filter13_f_6574_2480)">
<path d="M1692.41 2847.56C1413.41 2907.71 371.107 4181.13 309.238 3894.17C247.368 3607.21 780.017 3902.07 1059.01 3841.91C1338.01 3781.76 1257.71 3389.37 1319.57 3676.33C1381.44 3963.3 1971.4 2787.41 1692.41 2847.56Z" fill="#809FB4"/>
</g>
<g filter="url(#filter14_f_6574_2480)">
<path d="M881.042 3413.3C798.358 3187.16 618.306 3171.4 844.45 3088.71C1070.59 3006.03 1320.95 3122.32 1403.63 3348.47C1486.32 3574.61 1370.02 3824.97 1143.87 3907.65C917.731 3990.33 963.725 3639.44 881.042 3413.3Z" fill="url(#paint6_linear_6574_2480)"/>
</g>
<g filter="url(#filter15_f_6574_2480)">
<path d="M1836.99 3637.57C1664.77 3674.7 972.293 3326.44 190.885 4956.92C153.753 4784.69 1009.38 2994.82 1181.6 2957.69C1353.83 2920.56 1523.55 3030.07 1560.68 3202.3C1597.81 3374.53 2009.22 3600.43 1836.99 3637.57Z" fill="url(#paint7_linear_6574_2480)" fill-opacity="0.3"/>
</g>
</g>
</g>
<defs>
<filter id="filter0_f_6574_2480" x="-913.693" y="3440.68" width="2382.1" height="2475.24" filterUnits="userSpaceOnUse" color-interpolation-filters="sRGB">
<feFlood flood-opacity="0" result="BackgroundImageFix"/>
<feBlend mode="normal" in="SourceGraphic" in2="BackgroundImageFix" result="shape"/>
<feGaussianBlur stdDeviation="304.86" result="effect1_foregroundBlur_6574_2480"/>
</filter>
<filter id="filter1_f_6574_2480" x="-1262.08" y="3087.29" width="2480.63" height="2108.9" filterUnits="userSpaceOnUse" color-interpolation-filters="sRGB">
<feFlood flood-opacity="0" result="BackgroundImageFix"/>
<feBlend mode="normal" in="SourceGraphic" in2="BackgroundImageFix" result="shape"/>
<feGaussianBlur stdDeviation="254.5" result="effect1_foregroundBlur_6574_2480"/>
</filter>
<filter id="filter2_f_6574_2480" x="-522.716" y="3613.04" width="1095.62" height="1257.93" filterUnits="userSpaceOnUse" color-interpolation-filters="sRGB">
<feFlood flood-opacity="0" result="BackgroundImageFix"/>
<feBlend mode="normal" in="SourceGraphic" in2="BackgroundImageFix" result="shape"/>
<feGaussianBlur stdDeviation="100" result="effect1_foregroundBlur_6574_2480"/>
</filter>
<filter id="filter3_f_6574_2480" x="-967.649" y="3601.42" width="1889.23" height="2206.46" filterUnits="userSpaceOnUse" color-interpolation-filters="sRGB">
<feFlood flood-opacity="0" result="BackgroundImageFix"/>
<feBlend mode="normal" in="SourceGraphic" in2="BackgroundImageFix" result="shape"/>
<feGaussianBlur stdDeviation="50" result="effect1_foregroundBlur_6574_2480"/>
</filter>
<filter id="filter4_f_6574_2480" x="337.035" y="-609.721" width="1937.8" height="1955.59" filterUnits="userSpaceOnUse" color-interpolation-filters="sRGB">
<feFlood flood-opacity="0" result="BackgroundImageFix"/>
<feBlend mode="normal" in="SourceGraphic" in2="BackgroundImageFix" result="shape"/>
<feGaussianBlur stdDeviation="304.86" result="effect1_foregroundBlur_6574_2480"/>
</filter>
<filter id="filter5_f_6574_2480" x="168" y="-487.262" width="1504.15" height="1964.61" filterUnits="userSpaceOnUse" color-interpolation-filters="sRGB">
<feFlood flood-opacity="0" result="BackgroundImageFix"/>
<feBlend mode="normal" in="SourceGraphic" in2="BackgroundImageFix" result="shape"/>
<feGaussianBlur stdDeviation="254.5" result="effect1_foregroundBlur_6574_2480"/>
</filter>
<filter id="filter6_f_6574_2480" x="527.554" y="47.9229" width="728.975" height="905.538" filterUnits="userSpaceOnUse" color-interpolation-filters="sRGB">
<feFlood flood-opacity="0" result="BackgroundImageFix"/>
<feBlend mode="normal" in="SourceGraphic" in2="BackgroundImageFix" result="shape"/>
<feGaussianBlur stdDeviation="100" result="effect1_foregroundBlur_6574_2480"/>
</filter>
<filter id="filter7_f_6574_2480" x="577" y="-57.3262" width="1212" height="1322.61" filterUnits="userSpaceOnUse" color-interpolation-filters="sRGB">
<feFlood flood-opacity="0" result="BackgroundImageFix"/>
<feBlend mode="normal" in="SourceGraphic" in2="BackgroundImageFix" result="shape"/>
<feGaussianBlur stdDeviation="50" result="effect1_foregroundBlur_6574_2480"/>
</filter>
<filter id="filter8_f_6574_2480" x="-1143.42" y="799.08" width="2137.85" height="2144.92" filterUnits="userSpaceOnUse" color-interpolation-filters="sRGB">
<feFlood flood-opacity="0" result="BackgroundImageFix"/>
<feBlend mode="normal" in="SourceGraphic" in2="BackgroundImageFix" result="shape"/>
<feGaussianBlur stdDeviation="304.86" result="effect1_foregroundBlur_6574_2480"/>
</filter>
<filter id="filter9_f_6574_2480" x="-696.144" y="1092.97" width="1948.78" height="2067.03" filterUnits="userSpaceOnUse" color-interpolation-filters="sRGB">
<feFlood flood-opacity="0" result="BackgroundImageFix"/>
<feBlend mode="normal" in="SourceGraphic" in2="BackgroundImageFix" result="shape"/>
<feGaussianBlur stdDeviation="254.5" result="effect1_foregroundBlur_6574_2480"/>
</filter>
<filter id="filter10_f_6574_2480" x="-269.401" y="1612.99" width="1045.76" height="952.912" filterUnits="userSpaceOnUse" color-interpolation-filters="sRGB">
<feFlood flood-opacity="0" result="BackgroundImageFix"/>
<feBlend mode="normal" in="SourceGraphic" in2="BackgroundImageFix" result="shape"/>
<feGaussianBlur stdDeviation="100" result="effect1_foregroundBlur_6574_2480"/>
</filter>
<filter id="filter11_f_6574_2480" x="-482.022" y="718" width="1219.95" height="1878.99" filterUnits="userSpaceOnUse" color-interpolation-filters="sRGB">
<feFlood flood-opacity="0" result="BackgroundImageFix"/>
<feBlend mode="normal" in="SourceGraphic" in2="BackgroundImageFix" result="shape"/>
<feGaussianBlur stdDeviation="50" result="effect1_foregroundBlur_6574_2480"/>
</filter>
<filter id="filter12_f_6574_2480" x="143.669" y="2689.72" width="2382.1" height="2475.24" filterUnits="userSpaceOnUse" color-interpolation-filters="sRGB">
<feFlood flood-opacity="0" result="BackgroundImageFix"/>
<feBlend mode="normal" in="SourceGraphic" in2="BackgroundImageFix" result="shape"/>
<feGaussianBlur stdDeviation="304.86" result="effect1_foregroundBlur_6574_2480"/>
</filter>
<filter id="filter13_f_6574_2480" x="-204.718" y="2336.32" width="2480.63" height="2108.9" filterUnits="userSpaceOnUse" color-interpolation-filters="sRGB">
<feFlood flood-opacity="0" result="BackgroundImageFix"/>
<feBlend mode="normal" in="SourceGraphic" in2="BackgroundImageFix" result="shape"/>
<feGaussianBlur stdDeviation="254.5" result="effect1_foregroundBlur_6574_2480"/>
</filter>
<filter id="filter14_f_6574_2480" x="534.646" y="2862.08" width="1095.62" height="1257.93" filterUnits="userSpaceOnUse" color-interpolation-filters="sRGB">
<feFlood flood-opacity="0" result="BackgroundImageFix"/>
<feBlend mode="normal" in="SourceGraphic" in2="BackgroundImageFix" result="shape"/>
<feGaussianBlur stdDeviation="100" result="effect1_foregroundBlur_6574_2480"/>
</filter>
<filter id="filter15_f_6574_2480" x="89.7119" y="2850.46" width="1889.23" height="2206.46" filterUnits="userSpaceOnUse" color-interpolation-filters="sRGB">
<feFlood flood-opacity="0" result="BackgroundImageFix"/>
<feBlend mode="normal" in="SourceGraphic" in2="BackgroundImageFix" result="shape"/>
<feGaussianBlur stdDeviation="50" result="effect1_foregroundBlur_6574_2480"/>
</filter>
<linearGradient id="paint0_linear_6574_2480" x1="86.5133" y1="4658.61" x2="-212.912" y2="3839.67" gradientUnits="userSpaceOnUse">
<stop stopColor="#513DAA"/>
<stop offset="1" stopColor="#FFC56F" stop-opacity="0.46"/>
</linearGradient>
<linearGradient id="paint1_linear_6574_2480" x1="503.318" y1="3953.26" x2="-120.37" y2="4087.73" gradientUnits="userSpaceOnUse">
<stop stopColor="#9555E2"/>
<stop offset="0.640583" stopColor="#D27769" stop-opacity="0.359417"/>
<stop offset="1" stopColor="#F58A25" stop-opacity="0"/>
<stop offset="1" stopColor="#7061A3"/>
</linearGradient>
<linearGradient id="paint2_linear_6574_2480" x1="980.322" y1="247.923" x2="980.322" y2="753.46" gradientUnits="userSpaceOnUse">
<stop stopColor="#513DAA"/>
<stop offset="1" stopColor="#FFC56F" stop-opacity="0.46"/>
</linearGradient>
<linearGradient id="paint3_linear_6574_2480" x1="861.952" y1="174.558" x2="861.952" y2="544.464" gradientUnits="userSpaceOnUse">
<stop stopColor="#9555E2"/>
<stop offset="0.640583" stopColor="#D27769" stop-opacity="0.359417"/>
<stop offset="1" stopColor="#F58A25" stop-opacity="0"/>
<stop offset="1" stopColor="#7061A3"/>
</linearGradient>
<linearGradient id="paint4_linear_6574_2480" x1="-55.2218" y1="2176.9" x2="543.896" y2="1890.87" gradientUnits="userSpaceOnUse">
<stop stopColor="#513DAA"/>
<stop offset="1" stopColor="#FFC56F" stop-opacity="0.46"/>
</linearGradient>
<linearGradient id="paint5_linear_6574_2480" x1="-75.1941" y1="2358.69" x2="363.185" y2="2149.4" gradientUnits="userSpaceOnUse">
<stop stopColor="#9555E2"/>
<stop offset="0.640583" stopColor="#D27769" stop-opacity="0.359417"/>
<stop offset="1" stopColor="#F58A25" stop-opacity="0"/>
<stop offset="1" stopColor="#7061A3"/>
</linearGradient>
<linearGradient id="paint6_linear_6574_2480" x1="1143.87" y1="3907.65" x2="844.45" y2="3088.71" gradientUnits="userSpaceOnUse">
<stop stopColor="#513DAA"/>
<stop offset="1" stopColor="#FFC56F" stop-opacity="0.46"/>
</linearGradient>
<linearGradient id="paint7_linear_6574_2480" x1="1560.68" y1="3202.3" x2="936.991" y2="3336.77" gradientUnits="userSpaceOnUse">
<stop stopColor="#9555E2"/>
<stop offset="0.640583" stopColor="#D27769" stop-opacity="0.359417"/>
<stop offset="1" stopColor="#F58A25" stop-opacity="0"/>
<stop offset="1" stopColor="#7061A3"/>
</linearGradient>
<clipPath id="clip0_6574_2480">
<rect width="1440" height="5512" fill="white"/>
</clipPath>
</defs>
</svg>
