<svg width="2245" height="2270" viewBox="0 0 2245 2270" fill="none" xmlns="http://www.w3.org/2000/svg">
<g clip-path="url(#clip0_6574_2479)">
<g opacity="0.7">
<g filter="url(#filter0_f_6574_2479)">
<path d="M421.417 309.281C421.417 473.107 755.742 669 533.159 669C310.575 669 244.232 217.127 244.232 53.3018C244.232 -110.524 628.397 155.578 850.98 155.578C1073.56 155.578 421.417 145.456 421.417 309.281Z" fill="#5B68DF"/>
</g>
<g filter="url(#filter1_f_6574_2479)">
<path d="M-1 51.3987C-1 201.777 539.313 880.027 384.591 880.027C229.869 880.027 440.957 638.428 440.957 488.05C440.957 337.672 229.869 335.46 384.591 335.46C539.313 335.46 -1 -98.9793 -1 51.3987Z" fill="#809FB4"/>
</g>
<g filter="url(#filter2_f_6574_2479)">
<path d="M315.38 517.493C315.38 644.36 401.656 684.735 274.747 684.735C147.837 684.735 44.957 581.889 44.957 455.022C44.957 328.155 147.837 225.309 274.747 225.309C401.656 225.309 315.38 390.626 315.38 517.493Z" fill="url(#paint0_linear_6574_2479)"/>
</g>
<g filter="url(#filter3_f_6574_2479)">
<path d="M422.093 64.6548C422.093 157.484 165.738 475.473 919 1059C826.139 1059 -1 419.548 -1 326.718C-1 233.889 74.2783 158.636 167.139 158.636C259.999 158.636 422.093 -28.1748 422.093 64.6548Z" fill="url(#paint1_linear_6574_2479)" fill-opacity="0.3"/>
</g>
</g>
<g opacity="0.7">
<g filter="url(#filter4_f_6574_2479)">
<path d="M1606.26 1260.89C1355.38 1314.98 1165.76 1891.55 1092.28 1550.75C1018.8 1209.94 1688.89 959.17 1939.77 905.08C2190.65 850.989 1909.96 1527.05 1983.44 1867.85C2056.92 2208.66 1857.14 1206.8 1606.26 1260.89Z" fill="#5B68DF"/>
</g>
<g filter="url(#filter5_f_6574_2479)">
<path d="M1861.73 528.97C1631.44 578.621 771.146 1629.84 720.07 1392.95C668.994 1156.05 1108.66 1399.48 1338.94 1349.83C1569.23 1300.18 1502.94 976.247 1554.01 1213.15C1605.09 1450.04 2092.01 479.32 1861.73 528.97Z" fill="#809FB4"/>
</g>
<g filter="url(#filter6_f_6574_2479)">
<path d="M1252.4 1167.28C1058.12 1209.17 1024.77 1354.6 982.875 1160.28C940.98 965.971 1064.51 774.492 1258.8 732.604C1453.08 690.716 1644.54 814.282 1686.43 1008.6C1728.33 1202.91 1446.68 1125.39 1252.4 1167.28Z" fill="url(#paint2_linear_6574_2479)"/>
</g>
<g filter="url(#filter7_f_6574_2479)">
<path d="M1981.1 1181.15C1838.94 1211.8 1267.35 924.284 622.411 2270.28C591.756 2128.1 1297.95 650.523 1440.11 619.874C1582.27 589.224 1722.36 679.638 1753.01 821.818C1783.67 963.999 2123.26 1150.5 1981.1 1181.15Z" fill="url(#paint3_linear_6574_2479)" fill-opacity="0.3"/>
</g>
</g>
</g>
<defs>
<filter id="filter0_f_6574_2479" x="-365.488" y="-609.721" width="1872.5" height="1888.44" filterUnits="userSpaceOnUse" color-interpolation-filters="sRGB">
<feFlood flood-opacity="0" result="BackgroundImageFix"/>
<feBlend mode="normal" in="SourceGraphic" in2="BackgroundImageFix" result="shape"/>
<feGaussianBlur stdDeviation="304.86" result="effect1_foregroundBlur_6574_2479"/>
</filter>
<filter id="filter1_f_6574_2479" x="-510" y="-489.244" width="1459.96" height="1878.27" filterUnits="userSpaceOnUse" color-interpolation-filters="sRGB">
<feFlood flood-opacity="0" result="BackgroundImageFix"/>
<feBlend mode="normal" in="SourceGraphic" in2="BackgroundImageFix" result="shape"/>
<feGaussianBlur stdDeviation="254.5" result="effect1_foregroundBlur_6574_2479"/>
</filter>
<filter id="filter2_f_6574_2479" x="-155.043" y="25.3091" width="699.068" height="859.426" filterUnits="userSpaceOnUse" color-interpolation-filters="sRGB">
<feFlood flood-opacity="0" result="BackgroundImageFix"/>
<feBlend mode="normal" in="SourceGraphic" in2="BackgroundImageFix" result="shape"/>
<feGaussianBlur stdDeviation="100" result="effect1_foregroundBlur_6574_2479"/>
</filter>
<filter id="filter3_f_6574_2479" x="-101" y="-61.2183" width="1120" height="1220.22" filterUnits="userSpaceOnUse" color-interpolation-filters="sRGB">
<feFlood flood-opacity="0" result="BackgroundImageFix"/>
<feBlend mode="normal" in="SourceGraphic" in2="BackgroundImageFix" result="shape"/>
<feGaussianBlur stdDeviation="50" result="effect1_foregroundBlur_6574_2479"/>
</filter>
<filter id="filter4_f_6574_2479" x="476.963" y="292.297" width="2179.1" height="2256.15" filterUnits="userSpaceOnUse" color-interpolation-filters="sRGB">
<feFlood flood-opacity="0" result="BackgroundImageFix"/>
<feBlend mode="normal" in="SourceGraphic" in2="BackgroundImageFix" result="shape"/>
<feGaussianBlur stdDeviation="304.86" result="effect1_foregroundBlur_6574_2479"/>
</filter>
<filter id="filter5_f_6574_2479" x="206.979" y="18.125" width="2225.25" height="1918.54" filterUnits="userSpaceOnUse" color-interpolation-filters="sRGB">
<feFlood flood-opacity="0" result="BackgroundImageFix"/>
<feBlend mode="normal" in="SourceGraphic" in2="BackgroundImageFix" result="shape"/>
<feGaussianBlur stdDeviation="254.5" result="effect1_foregroundBlur_6574_2479"/>
</filter>
<filter id="filter6_f_6574_2479" x="774.714" y="524.447" width="1115.91" height="934.502" filterUnits="userSpaceOnUse" color-interpolation-filters="sRGB">
<feFlood flood-opacity="0" result="BackgroundImageFix"/>
<feBlend mode="normal" in="SourceGraphic" in2="BackgroundImageFix" result="shape"/>
<feGaussianBlur stdDeviation="100" result="effect1_foregroundBlur_6574_2479"/>
</filter>
<filter id="filter7_f_6574_2479" x="521.442" y="513.905" width="1594.28" height="1856.38" filterUnits="userSpaceOnUse" color-interpolation-filters="sRGB">
<feFlood flood-opacity="0" result="BackgroundImageFix"/>
<feBlend mode="normal" in="SourceGraphic" in2="BackgroundImageFix" result="shape"/>
<feGaussianBlur stdDeviation="50" result="effect1_foregroundBlur_6574_2479"/>
</filter>
<linearGradient id="paint0_linear_6574_2479" x1="274.747" y1="225.309" x2="274.747" y2="684.735" gradientUnits="userSpaceOnUse">
<stop stopColor="#513DAA"/>
<stop offset="1" stopColor="#FFC56F" stop-opacity="0.46"/>
</linearGradient>
<linearGradient id="paint1_linear_6574_2479" x1="167.139" y1="158.637" x2="167.139" y2="494.802" gradientUnits="userSpaceOnUse">
<stop stopColor="#9555E2"/>
<stop offset="0.640583" stopColor="#D27769" stop-opacity="0.359417"/>
<stop offset="1" stopColor="#F58A25" stop-opacity="0"/>
<stop offset="1" stopColor="#7061A3"/>
</linearGradient>
<linearGradient id="paint2_linear_6574_2479" x1="1686.43" y1="1008.6" x2="982.875" y2="1160.28" gradientUnits="userSpaceOnUse">
<stop stopColor="#513DAA"/>
<stop offset="1" stopColor="#FFC56F" stop-opacity="0.46"/>
</linearGradient>
<linearGradient id="paint3_linear_6574_2479" x1="1753.01" y1="821.818" x2="1238.21" y2="932.811" gradientUnits="userSpaceOnUse">
<stop stopColor="#9555E2"/>
<stop offset="0.640583" stopColor="#D27769" stop-opacity="0.359417"/>
<stop offset="1" stopColor="#F58A25" stop-opacity="0"/>
<stop offset="1" stopColor="#7061A3"/>
</linearGradient>
<clipPath id="clip0_6574_2479">
<rect width="2245" height="2270" fill="white"/>
</clipPath>
</defs>
</svg>
