<svg width="86" height="86" viewBox="0 0 86 86" fill="none" xmlns="http://www.w3.org/2000/svg">
<rect width="85.43" height="85.4302" rx="42.715" fill="#FFF2F1"/>
<mask id="mask0_4164_6" style="mask-type:alpha" maskUnits="userSpaceOnUse" x="26" y="29" width="29" height="29">
<rect x="26.7852" y="29.7256" width="27.4141" height="27.4141" fill="#D9D9D9"/>
</mask>
<g mask="url(#mask0_4164_6)">
<path d="M45.0611 42.2905V38.8638H41.6344V37.1504H45.0611V33.7236H46.7745V37.1504H50.2013V38.8638H46.7745V42.2905H45.0611ZM48.9908 53.1419C46.8382 53.1419 44.6756 52.6414 42.503 51.6404C40.3307 50.6394 38.3347 49.2274 36.5151 47.4044C34.6957 45.5812 33.2854 43.5851 32.2845 41.4161C31.2835 39.2474 30.783 37.0867 30.783 34.9341C30.783 34.5882 30.8972 34.3 31.1256 34.0694C31.3541 33.8389 31.6396 33.7236 31.9823 33.7236H35.7078C35.9962 33.7236 36.2506 33.8178 36.4711 34.0061C36.6915 34.1941 36.8318 34.4266 36.8917 34.7034L37.5465 38.0642C37.5918 38.376 37.5823 38.644 37.518 38.8681C37.4534 39.0921 37.3377 39.2803 37.1707 39.4326L34.5327 42.0007C34.9572 42.7782 35.4423 43.5137 35.9879 44.2072C36.5333 44.9006 37.1239 45.5628 37.7596 46.1939C38.3863 46.8208 39.0526 47.403 39.7585 47.9404C40.4644 48.4778 41.2267 48.9779 42.0453 49.4407L44.6085 46.8553C44.7873 46.6693 45.0037 46.5389 45.2579 46.464C45.5118 46.3894 45.7758 46.3711 46.0497 46.4092L49.2215 47.0552C49.5099 47.1313 49.7453 47.2785 49.9277 47.4966C50.1101 47.7148 50.2013 47.9623 50.2013 48.2391V51.9426C50.2013 52.2852 50.086 52.5708 49.8554 52.7993C49.6249 53.0277 49.3367 53.1419 48.9908 53.1419ZM33.722 40.3795L35.7606 38.4289C35.7972 38.3995 35.821 38.3593 35.832 38.3081C35.843 38.2569 35.8412 38.2093 35.8266 38.1653L35.33 35.6126C35.3153 35.5542 35.2897 35.5103 35.2532 35.481C35.2166 35.4517 35.169 35.437 35.1104 35.437H32.6677C32.6237 35.437 32.5871 35.4517 32.5577 35.481C32.5286 35.5103 32.514 35.547 32.514 35.5909C32.5725 36.3715 32.7002 37.1644 32.8973 37.9697C33.0941 38.7752 33.369 39.5784 33.722 40.3795ZM43.6596 50.2512C44.4167 50.6041 45.2064 50.874 46.0286 51.0607C46.851 51.2473 47.6195 51.3582 48.334 51.3934C48.3779 51.3934 48.4146 51.3788 48.4439 51.3494C48.4732 51.3201 48.4879 51.2835 48.4879 51.2395V48.8365C48.4879 48.7779 48.4732 48.7303 48.4439 48.6937C48.4146 48.6572 48.3707 48.6316 48.3123 48.6169L45.9135 48.1292C45.8695 48.1145 45.8311 48.1127 45.7982 48.1237C45.7652 48.1348 45.7304 48.1586 45.6936 48.1951L43.6596 50.2512Z" fill="black"/>
</g>
</svg>
