<svg width="30" height="29" viewBox="0 0 30 29" fill="none" xmlns="http://www.w3.org/2000/svg">
<path d="M13.4694 0.0706752C13.2607 0.105639 12.725 0.203539 12.2867 0.280461C11.8483 0.364375 11.0622 0.567168 10.5473 0.734996C10.0325 0.909817 9.23243 1.23149 8.77326 1.45526C8.31408 1.67903 7.6114 2.08462 7.20788 2.35034C6.80436 2.61607 6.27562 3.00068 6.02516 3.21047C5.7747 3.41326 5.35726 3.79087 5.09289 4.04262C4.83547 4.29436 4.38325 4.78386 4.09105 5.1335C3.79885 5.47615 3.34663 6.09152 3.08225 6.49711C2.81788 6.90269 2.41436 7.60897 2.19173 8.0705C1.9691 8.53203 1.66298 9.28725 1.50992 9.74878C1.35686 10.2103 1.16902 10.8746 1.09249 11.2173C1.01596 11.5599 0.904644 12.2243 0.848986 12.6858C0.786371 13.1473 0.737671 13.9165 0.737671 14.399C0.737671 14.8815 0.800286 15.6787 0.869858 16.1822C0.946388 16.6787 1.08553 17.406 1.18293 17.7906C1.28033 18.1752 1.45426 18.7766 1.57949 19.1192C1.69777 19.4619 1.94127 20.0632 2.12216 20.4478C2.30304 20.8325 2.63003 21.4338 2.83875 21.7765C3.05442 22.1191 3.44403 22.6926 3.71536 23.0352C3.97973 23.3779 4.41108 23.8953 4.67546 24.182C4.93983 24.4687 5.45466 24.9512 5.81644 25.2519C6.17821 25.5596 6.76262 25.9932 7.10352 26.2309C7.44443 26.4617 8.16798 26.8673 8.70368 27.133C9.23939 27.3987 10.0673 27.7484 10.5473 27.9022C11.0274 28.0631 11.7022 28.2449 12.0431 28.3218C12.3841 28.3917 12.711 28.4547 12.7597 28.4547C12.8224 28.4547 12.8432 27.3708 12.8432 23.28V18.1052H9.36462V14.3291H12.8432C12.8432 12.2942 12.878 11.3432 12.9198 10.9026C12.9615 10.4621 13.0519 9.86067 13.1285 9.57396C13.198 9.28725 13.4068 8.7488 13.5877 8.38518C13.8381 7.86771 14.019 7.61596 14.3877 7.24534C14.7356 6.90269 15.0139 6.6999 15.4383 6.49711C15.7513 6.34326 16.1966 6.16844 16.4262 6.1125C16.6558 6.04956 17.1706 5.96565 17.5741 5.92369C18.1168 5.86775 18.6455 5.86775 19.6265 5.93069C20.3501 5.97264 21.018 6.02159 21.1084 6.04257L21.2615 6.07754L21.2267 9.32921C18.6038 9.39215 18.2629 9.42012 18.0959 9.51103C17.9846 9.57396 17.755 9.77675 17.5881 9.96556C17.3932 10.1893 17.2402 10.4621 17.1428 10.7627C17.0106 11.1613 16.9897 11.4131 16.9689 12.7697L16.948 14.3291C20.2388 14.3291 21.1919 14.3361 21.1919 14.3431C21.1919 14.3571 21.0667 15.1822 20.9136 16.1822C20.7605 17.1822 20.6353 18.0213 20.6353 18.0493C20.6353 18.0843 19.8074 18.1052 18.7916 18.1052H16.948C16.948 26.182 16.9689 28.5246 17.0036 28.5246C17.0315 28.5246 17.268 28.4756 17.5394 28.4127C17.8107 28.3498 18.3255 28.2239 18.6873 28.133C19.0491 28.0351 19.6126 27.8603 19.9396 27.7414C20.2666 27.6225 20.9066 27.3428 21.3658 27.112C21.825 26.8813 22.4998 26.4967 22.8616 26.2519C23.2234 26.0072 23.8217 25.5596 24.1835 25.2589C24.5453 24.9512 25.0601 24.4687 25.3245 24.182C25.5889 23.8953 26.0202 23.3779 26.2846 23.0352C26.5559 22.6926 26.9455 22.1191 27.1612 21.7765C27.3699 21.4338 27.6969 20.8325 27.8778 20.4478C28.0587 20.0632 28.3022 19.4619 28.4204 19.1192C28.5457 18.7766 28.7196 18.1752 28.817 17.7906C28.9144 17.406 29.0535 16.6647 29.1301 16.1472C29.1996 15.6298 29.2623 14.8116 29.2623 14.3291C29.2623 13.8466 29.2136 13.1123 29.1579 12.6858C29.0953 12.2592 28.984 11.6159 28.9074 11.2522C28.8309 10.8886 28.6431 10.2103 28.49 9.74878C28.337 9.28725 28.0308 8.53203 27.8082 8.0705C27.5856 7.60897 27.1821 6.90269 26.9177 6.49711C26.6533 6.09152 26.2011 5.47615 25.9089 5.1335C25.6236 4.78386 25.1227 4.2524 24.8027 3.94472C24.4757 3.63703 23.9191 3.16152 23.5573 2.88879C23.1956 2.61607 22.632 2.23147 22.305 2.03567C21.9781 1.83987 21.4145 1.53917 21.0527 1.36435C20.691 1.19652 20.1066 0.958768 19.7657 0.832896C19.4248 0.714018 18.8404 0.539196 18.4786 0.448289C18.1168 0.350389 17.3932 0.210532 16.8784 0.133611C16.2175 0.0357111 15.6331 -0.00624615 14.8956 0.000746703C14.3251 0.00773956 13.6781 0.035711 13.4694 0.0706752Z" fill="#FFF2F1"/>
</svg>
