<svg width="41" height="41" viewBox="0 0 41 41" fill="none" xmlns="http://www.w3.org/2000/svg">
<path d="M31.7428 36.318C31.4449 36.5178 31.1113 36.7524 31.003 36.8265C30.8948 36.9005 30.1731 37.2979 29.4054 37.6968C28.6163 38.0994 27.7022 38.5305 27.3197 38.6747C26.9433 38.8155 26.3962 39.0018 26.1011 39.091C25.8092 39.1862 25.1483 39.3637 24.6361 39.4844C24.1272 39.6111 23.2631 39.7736 22.7248 39.846C22.1866 39.9184 21.3508 40.0033 20.8692 40.0217C20.3909 40.0462 19.6016 40.0437 19.1158 40.0254C18.6333 40.0132 17.9839 39.9663 17.6603 39.9306C17.3367 39.8949 16.6766 39.7993 16.1824 39.7076C15.6914 39.6219 14.7132 39.3707 14.0061 39.1447C13.3021 38.9246 12.395 38.5883 11.99 38.4017C11.585 38.2152 10.98 37.9183 10.6397 37.7358C10.3053 37.55 9.73892 37.209 9.37851 36.975C9.02415 36.7377 8.47167 36.3502 8.15729 36.1146C7.84291 35.8791 7.3262 35.4567 7.01644 35.172C6.70063 34.8905 6.20714 34.4244 5.92154 34.1266C5.6299 33.832 5.14333 33.292 4.83398 32.9213C4.52463 32.5506 4.05104 31.9335 3.77793 31.5432C3.50483 31.153 3.08561 30.5065 2.83667 30.1032C2.59377 29.6966 2.18888 28.9177 1.93242 28.3704C1.682 27.8198 1.32259 26.9228 1.14005 26.3824C0.954242 25.8359 0.710627 25.0089 0.600633 24.5305C0.49064 24.0522 0.354939 23.3384 0.296595 22.9413C0.244293 22.5409 0.179312 21.9292 0.153068 21.5771C0.126827 21.225 0.104609 20.6058 0.104365 20.2007C0.110163 19.7923 0.145038 19.0332 0.193537 18.516C0.242037 17.9989 0.348937 17.1853 0.435579 16.7099C0.528263 16.2313 0.75734 15.2971 0.961015 14.6339C1.15865 13.9739 1.48302 13.0429 1.68356 12.5761C1.8841 12.1094 2.21837 11.399 2.4301 10.9964C2.64184 10.5938 2.99429 9.97487 3.20745 9.61822C3.42386 9.2676 3.82002 8.67188 4.09732 8.30398C4.37137 7.93005 4.78802 7.40119 5.02215 7.12673C5.25627 6.85227 5.58563 6.47964 5.75241 6.31168C5.91593 6.13768 6.27923 5.77011 6.55938 5.49419C6.83952 5.21827 7.35941 4.75057 7.71252 4.45084C8.06563 4.15111 8.64736 3.69679 9.00189 3.44305C9.35643 3.18931 10.0065 2.76044 10.4438 2.501C10.9201 2.21269 11.5549 1.88558 12.0308 1.68321C12.4672 1.49439 13.1229 1.24946 13.491 1.13647C13.8559 1.01743 14.4136 0.879981 14.725 0.820961C15.0364 0.761942 15.5259 0.70032 15.8201 0.681741C16.1144 0.663164 16.569 0.667103 16.8433 0.698264C17.1143 0.723393 17.5374 0.79892 17.7847 0.852423C18.0293 0.915223 18.4263 1.04375 18.663 1.14976C18.8997 1.25578 19.2624 1.4652 19.4759 1.61492C19.6926 1.77067 20.0144 2.0489 20.1893 2.24282C20.434 2.50816 20.6536 2.85717 21.0836 3.65369C21.4876 4.40193 21.718 4.90097 21.8707 5.3718C21.9895 5.73629 22.1958 6.45093 22.3282 6.95617C22.4544 7.46467 22.6339 8.30292 22.7142 8.81288C22.7944 9.32285 22.8963 10.1329 22.9323 10.6044C22.9684 11.0758 23.0051 11.8665 23.005 12.3575C23.0108 12.8453 22.9997 13.6773 22.9791 14.2028C22.9525 14.7315 22.8801 15.768 22.808 16.5161C22.742 17.2609 22.5852 18.5456 22.4755 19.3686C22.3681 20.1454 22.2293 21.1647 22.1579 21.6896L22.1474 21.7667C22.0798 22.2629 21.9753 23.1532 21.9166 23.7382C21.8519 24.3264 21.797 25.1353 21.7875 25.5223C21.778 25.9093 21.7959 26.3905 21.8328 26.5888C21.8733 26.8085 21.9627 27.0174 22.0618 27.1432C22.1516 27.2661 22.3585 27.4038 22.5478 27.4653C22.7714 27.5472 22.9992 27.5645 23.2925 27.5152C23.6406 27.452 23.8739 27.3494 24.617 26.9482C25.209 26.6286 25.7118 26.3027 26.0686 26.0243C26.3683 25.7846 26.8729 25.3174 27.1851 24.9852C27.4973 24.653 27.9269 24.1483 28.136 23.8562C28.3482 23.5702 28.5921 23.2125 28.6859 23.0684C28.7764 22.9182 29.0119 22.4872 29.2087 22.1003C29.4056 21.7135 29.6911 21.0139 29.8456 20.5486C30.0001 20.0834 30.1787 19.4025 30.2444 19.0475C30.3102 18.6925 30.3847 18.1223 30.4143 17.7869C30.4438 17.4514 30.4514 16.8006 30.4278 16.3379C30.4104 15.872 30.336 15.1562 30.2614 14.7289C30.19 14.3077 30.0176 13.5981 29.8839 13.1481C29.747 12.6921 29.4527 11.9159 29.2344 11.4103C28.9239 10.7051 28.7024 10.2948 28.2571 9.60002C27.9379 9.10995 27.4341 8.40785 27.1312 8.04922C26.8251 7.68455 26.067 6.90155 25.4437 6.31067C24.646 5.54121 24.2204 5.08521 24.0017 4.76687C23.8342 4.51441 23.6355 4.14632 23.568 3.94899C23.5005 3.75165 23.4277 3.38569 23.4169 3.13438C23.4023 2.86171 23.4505 2.53179 23.5326 2.30821C23.6124 2.10925 23.7759 1.83398 23.9009 1.70417C24.0226 1.56833 24.2507 1.39841 24.4078 1.31361C24.5709 1.22556 24.8688 1.12707 25.0705 1.09609C25.2783 1.06186 25.6744 1.05845 25.9454 1.08358C26.2164 1.1087 26.7794 1.24116 27.1984 1.38126C27.614 1.51534 28.2952 1.7944 28.7128 1.9898C29.1275 2.19449 29.7176 2.50714 30.0241 2.68459C30.3305 2.86204 30.8314 3.16834 31.1415 3.36715C31.4457 3.56922 32.0237 3.98968 32.4297 4.3082C32.8358 4.62672 33.4222 5.12056 33.7385 5.41738C34.0515 5.70817 34.5557 6.22305 34.8669 6.5538C35.1753 6.89384 35.6503 7.45568 35.922 7.79996C36.1937 8.14424 36.6007 8.69597 36.8259 9.02639C37.0451 9.36007 37.4857 10.1041 37.7985 10.6834C38.1112 11.2626 38.5185 12.1182 38.7014 12.5727C38.8844 13.0272 39.133 13.719 39.2495 14.1082C39.372 14.494 39.5383 15.1056 39.6231 15.465C39.7079 15.8245 39.8497 16.535 39.9332 17.051C40.0227 17.5637 40.1112 18.6381 40.1419 19.432C40.1726 20.2259 40.1575 21.3251 40.1067 21.8669C40.0619 22.4053 39.961 23.2157 39.8827 23.6632C39.8105 24.1074 39.6376 24.871 39.5049 25.3478C39.3662 25.8279 39.2339 26.2188 39.206 26.2105C39.1721 26.2055 39.1287 25.8938 39.108 25.5231C39.0873 25.1524 38.9971 24.3205 38.9219 23.6754C38.8406 23.0335 38.7071 22.0925 38.6115 21.583C38.5159 21.0735 38.3835 20.467 38.3206 20.2204C38.2517 19.9771 38.105 19.6043 37.9878 19.3871C37.8705 19.1698 37.6872 18.9025 37.5732 18.7926C37.4593 18.6827 37.2123 18.5433 37.0264 18.4878C36.8092 18.418 36.5754 18.4039 36.3774 18.4563C36.1427 18.5129 36.0037 18.5879 35.8002 18.7601C35.6539 18.8936 35.4267 19.1955 35.287 19.4424C35.1532 19.686 34.808 20.6361 34.5138 21.5509C34.2289 22.4683 33.8233 23.6536 33.6187 24.1849C33.4172 24.7223 33.0709 25.5404 32.8523 26.017C32.6304 26.4874 32.2515 27.2453 32.0045 27.6981C31.7574 28.151 31.3636 28.8234 31.1324 29.1898C30.9011 29.5562 30.4747 30.1683 30.1853 30.5427C29.8959 30.9171 29.4193 31.4939 29.1225 31.8256C28.8257 32.1573 28.3132 32.6677 27.9848 32.9697C27.6563 33.2718 27.1508 33.7083 26.8692 33.9382C26.4678 34.2641 26.0217 34.5361 24.8436 35.172C23.5871 35.8504 23.239 36.0149 22.758 36.1499C22.4415 36.2429 22.0208 36.3453 21.8251 36.373C21.6267 36.41 21.2469 36.4436 20.9708 36.4524C20.6979 36.4672 20.2516 36.4354 19.9801 36.3949C19.7114 36.3452 19.2837 36.2176 19.0317 36.1121C18.7764 36.0005 18.4044 35.7883 18.2002 35.6414C17.9961 35.4944 17.7212 35.2454 17.5937 35.096C17.463 34.9406 17.2862 34.6853 17.2015 34.5285C17.1135 34.3655 17.0027 34.0591 16.9501 33.8459C16.8942 33.6268 16.8456 33.2477 16.8413 33.0085C16.8337 32.7632 16.8738 32.274 16.9396 31.919C17.0054 31.5639 17.215 30.6949 17.408 29.9829C17.6009 29.2709 18.2267 27.164 18.8016 25.2951C19.3764 23.4262 19.9702 21.3757 20.1256 20.7385C20.2842 20.1074 20.4826 19.1742 20.5743 18.6649C20.6693 18.1617 20.7892 17.3722 20.8457 16.9131C20.9021 16.454 20.9658 15.7339 20.9897 15.3157C21.0137 14.8976 21.0122 14.0567 20.9812 13.4501C20.9501 12.8434 20.8804 12.0784 20.8179 11.7458C20.7615 11.41 20.6249 10.8681 20.5257 10.5398C20.413 10.1721 20.1882 9.65443 19.9504 9.21393C19.6735 8.70102 19.4641 8.38545 19.2227 8.12614C19.0352 7.92342 18.6883 7.62757 18.4404 7.45746C18.1516 7.2549 17.7964 7.08821 17.4184 6.98056C17.0032 6.86182 16.6364 6.81825 16.1948 6.83846C15.8513 6.85246 15.3678 6.91082 15.121 6.97392C14.752 7.05626 14.4341 7.20449 13.4345 7.75191C12.2598 8.39391 12.1664 8.45212 11.6024 8.98261C11.2771 9.29065 10.7768 9.79455 10.4948 10.1104C10.2161 10.4323 9.7112 11.0868 9.37307 11.5732C9.03495 12.0597 8.57517 12.7833 8.34484 13.1804C8.11777 13.5835 7.74399 14.3074 7.52255 14.7932C7.3011 15.279 6.96642 16.0753 6.78821 16.569C6.61278 17.0533 6.41325 17.652 6.35018 17.8964C6.28385 18.1349 6.16422 18.6359 6.08634 18.9974C6.00241 19.3622 5.90043 19.8381 5.86709 20.0509C5.82771 20.267 5.76849 20.7354 5.72454 21.102C5.68664 21.4653 5.63595 22.2096 5.62512 22.7532C5.61429 23.2967 5.63616 24.1032 5.6778 24.5561C5.72549 25.0057 5.8035 25.6415 5.85995 25.9773C5.9164 26.3131 6.03528 26.8802 6.1201 27.2396C6.20491 27.599 6.40008 28.2496 6.54862 28.6837C6.72791 29.2181 7.01233 29.8751 7.43399 30.6995C7.80678 31.4333 8.21629 32.163 8.46381 32.5203C8.68899 32.8507 9.11467 33.408 9.41424 33.7606C9.70778 34.1165 10.2125 34.6467 10.526 34.9528C10.8455 35.2557 11.4817 35.7694 11.9403 36.0985C12.3928 36.4309 13.0475 36.8489 13.3819 37.0347C13.7223 37.2172 14.2119 37.4594 14.4704 37.577C14.729 37.6946 15.3688 37.9259 15.8867 38.0904C16.4046 38.255 17.123 38.4439 17.4782 38.5093C17.8333 38.5747 18.4623 38.656 18.8659 38.6953C19.2661 38.7286 19.9025 38.7513 20.2767 38.7363C20.6449 38.7246 21.2027 38.6884 21.5118 38.654C21.8269 38.6163 22.4405 38.4955 22.8732 38.3866C23.3059 38.2777 23.9933 38.0625 24.3939 37.9085C24.7885 37.7579 25.506 37.425 25.9772 37.1707C26.4545 36.913 27.1357 36.4985 27.4902 36.2447C27.8448 35.991 28.3308 35.6195 28.5673 35.4217C28.8038 35.2239 29.2103 34.8642 29.464 34.6259C29.7177 34.3877 30.2208 33.8745 30.5683 33.4921C30.919 33.1157 31.4583 32.4816 31.7658 32.0974C32.0733 31.7132 32.6154 30.9686 32.9767 30.4385C33.332 29.9115 33.842 29.1219 34.0988 28.6872C34.3588 28.2584 34.6904 27.7599 34.8293 27.5836C35.004 27.3724 35.2135 27.197 35.4793 27.0535C35.7874 26.8871 35.9273 26.8428 36.1551 26.8601C36.3123 26.8766 36.554 26.9487 36.6884 27.0242C36.8288 27.0964 37.0363 27.2494 37.1381 27.3659C37.246 27.479 37.3819 27.7018 37.4452 27.8625C37.5085 28.0231 37.5645 28.3436 37.5716 28.5735C37.5787 28.8034 37.5209 29.2165 37.4402 29.4861C37.3562 29.7496 37.1385 30.2568 36.9527 30.6065C36.7642 30.9654 36.4252 31.5225 36.199 31.855C35.9761 32.1935 35.5423 32.7628 35.2431 33.1191C34.9439 33.4755 34.4478 34.0161 34.1347 34.3176C33.8248 34.6251 33.284 35.1119 32.9276 35.4056C32.5713 35.6993 32.0374 36.1122 31.7428 36.318Z" fill="white"/>
</svg>
