<svg width="25" height="25" viewBox="0 0 25 25" fill="none" xmlns="http://www.w3.org/2000/svg">
<path d="M8.75224 1.59048C9.26088 1.40801 10.1045 1.17688 10.6131 1.09173C11.2334 0.970085 12.0894 0.933591 13.1563 0.957921C14.2108 0.994415 15.0916 1.09173 15.6995 1.24987C16.2081 1.38368 17.0269 1.65131 17.4983 1.84594C17.9698 2.04058 18.7637 2.45417 19.2352 2.75829C19.7066 3.07457 20.2648 3.46384 20.8479 3.93826L17.4983 7.25922L16.8781 6.83345C16.5307 6.60232 16.022 6.29821 15.7243 6.15223C15.439 6.01842 14.8559 5.81162 14.4217 5.7143C13.9999 5.61699 13.2804 5.53183 12.8089 5.53183C12.3499 5.53183 11.68 5.59266 11.3202 5.66564C10.9729 5.73863 10.2285 6.00626 9.68268 6.26171C9.13682 6.51717 8.40488 6.96726 8.06992 7.27138C7.72256 7.56333 7.1767 8.20806 6.82934 8.70681C6.49438 9.20556 6.08499 9.99626 5.92371 10.4585C5.72522 10.9938 5.60116 11.6993 5.56395 12.344C5.52673 13.0009 5.56395 13.6943 5.688 14.2296C5.78725 14.6918 6.04777 15.4339 6.25867 15.8718C6.48198 16.3097 6.89137 16.9545 7.1767 17.3194C7.46204 17.6722 7.92105 18.1466 8.19398 18.3534C8.46691 18.5723 8.93833 18.8886 9.24847 19.0711C9.55862 19.2414 10.1417 19.509 10.5511 19.6428C10.9853 19.801 11.7544 19.9348 12.412 19.9713C13.1935 20.0078 13.8138 19.9713 14.4589 19.8375C14.9676 19.728 15.7243 19.4847 16.1337 19.2901C16.5431 19.0954 17.2006 18.6453 17.61 18.2804C18.007 17.9276 18.466 17.4167 18.6273 17.1491C18.7885 16.8815 19.0243 16.3341 19.1731 15.9326C19.3096 15.5312 19.4212 15.1906 19.4212 15.1784C19.4212 15.1541 17.9077 15.1419 12.7221 15.1419L12.7841 10.5802L24.1355 10.5193L24.2223 10.8478C24.2843 11.0424 24.3215 12.0886 24.3091 13.1956C24.2967 14.9351 24.2595 15.3609 23.9866 16.3584C23.8129 16.9909 23.5028 17.8668 23.3043 18.3047C23.1058 18.7427 22.7212 19.4239 22.4483 19.8253C22.1877 20.2267 21.6543 20.8715 21.2821 21.2729C20.9099 21.6622 20.2648 22.2217 19.8554 22.5137C19.4461 22.7935 18.6397 23.2557 18.0566 23.5234C17.4735 23.791 16.4935 24.1316 15.8856 24.2776C14.9676 24.5087 14.4217 24.5574 12.8462 24.5574C11.221 24.5574 10.762 24.5209 9.86876 24.2776C9.28569 24.1316 8.52894 23.8883 8.19398 23.7545C7.84662 23.6085 7.12708 23.2436 6.58122 22.9395C5.8989 22.5502 5.19177 22.0028 4.33577 21.1634C3.49217 20.3362 2.87188 19.6063 2.43768 18.913C2.09032 18.3412 1.6313 17.4289 1.43281 16.8693C1.22191 16.3219 0.973794 15.3609 0.862141 14.7526C0.713271 13.9498 0.676054 13.2199 0.725677 12.2224C0.762895 11.383 0.899359 10.4342 1.04823 9.85029C1.1971 9.31504 1.49484 8.46352 1.71814 7.96477C1.94145 7.46601 2.40046 6.65098 2.73542 6.15223C3.08278 5.65348 3.71548 4.89927 4.16209 4.46134C4.6087 4.02342 5.35305 3.40302 5.83687 3.06241C6.3207 2.73396 6.9534 2.34469 7.26354 2.18655C7.57369 2.04058 8.2436 1.76079 8.75224 1.59048Z" fill="#FFF2F1"/>
</svg>
