<svg width="30" height="30" viewBox="0 0 30 30" fill="none" xmlns="http://www.w3.org/2000/svg">
<path d="M10.8632 2.70453C11.4234 2.50356 12.3525 2.249 12.9127 2.15521C13.5959 2.02123 14.5387 1.98104 15.7138 2.00784C16.8752 2.04803 17.8453 2.15521 18.5148 2.32939C19.075 2.47677 19.9768 2.77152 20.496 2.98589C21.0153 3.20026 21.8897 3.65579 22.409 3.99074C22.9282 4.33909 23.543 4.76783 24.1852 5.29035L20.496 8.94801L19.8129 8.47908C19.4303 8.22452 18.8701 7.88957 18.5422 7.72879C18.2279 7.58141 17.5857 7.35365 17.1075 7.24646C16.6429 7.13928 15.8504 7.04549 15.3312 7.04549C14.8256 7.04549 14.0878 7.11248 13.6916 7.19287C13.309 7.27326 12.4892 7.56802 11.888 7.84937C11.2868 8.13073 10.4806 8.62646 10.1117 8.96141C9.72911 9.28296 9.12791 9.99306 8.74533 10.5424C8.37641 11.0917 7.92551 11.9626 7.74788 12.4717C7.52926 13.0612 7.39263 13.8383 7.35164 14.5484C7.31065 15.2719 7.35164 16.0356 7.48827 16.6251C7.59758 17.1342 7.88452 17.9515 8.1168 18.4338C8.36275 18.9161 8.81365 19.6262 9.12791 20.0282C9.44217 20.4167 9.94773 20.9392 10.2483 21.167C10.5489 21.4082 11.0681 21.7565 11.4097 21.9575C11.7513 22.1451 12.3935 22.4398 12.8444 22.5872C13.3226 22.7614 14.1698 22.9088 14.894 22.9489C15.7548 22.9891 16.438 22.9489 17.1485 22.8016C17.7087 22.681 18.5422 22.413 18.993 22.1987C19.444 21.9843 20.1681 21.4886 20.619 21.0866C21.0563 20.6981 21.5618 20.1354 21.7394 19.8406C21.9171 19.5458 22.1767 18.9429 22.3406 18.5008C22.4909 18.0587 22.6139 17.6835 22.6139 17.6701C22.6139 17.6433 20.9469 17.6299 15.2356 17.6299L15.3039 12.6057L27.8061 12.5387L27.9017 12.9004C27.9701 13.1148 28.011 14.267 27.9974 15.4862C27.9837 17.4022 27.9427 17.8711 27.6421 18.9697C27.4508 19.6664 27.1092 20.6311 26.8906 21.1134C26.672 21.5957 26.2484 22.346 25.9478 22.7882C25.6609 23.2303 25.0734 23.9404 24.6635 24.3825C24.2535 24.8113 23.543 25.4276 23.0921 25.7491C22.6412 26.0573 21.7531 26.5664 21.1109 26.8612C20.4687 27.1559 19.3893 27.5311 18.7198 27.6918C17.7087 27.9464 17.1075 28 15.3722 28C13.5823 28 13.0767 27.9598 12.0929 27.6918C11.4507 27.5311 10.6172 27.2631 10.2483 27.1157C9.86575 26.955 9.07326 26.553 8.47206 26.2181C7.72056 25.7893 6.94173 25.1864 5.99894 24.262C5.06981 23.3509 4.38663 22.547 3.9084 21.7833C3.52582 21.1536 3.02027 20.1488 2.80165 19.5324C2.56937 18.9295 2.29609 17.8711 2.17312 17.2012C2.00916 16.3169 1.96817 15.513 2.02282 14.4144C2.06381 13.4899 2.21411 12.4449 2.37808 11.8018C2.54204 11.2123 2.86997 10.2744 3.11591 9.7251C3.36186 9.17578 3.86741 8.27811 4.23633 7.72879C4.61891 7.17947 5.31576 6.3488 5.80765 5.86647C6.29954 5.38414 7.11936 4.70084 7.65224 4.32569C8.18512 3.96395 8.88196 3.53521 9.22355 3.36104C9.56515 3.20026 10.303 2.89211 10.8632 2.70453Z" fill="white"/>
</svg>
