<svg width="24" height="24" viewBox="0 0 24 24" fill="none" xmlns="http://www.w3.org/2000/svg">
<path d="M9.13605 3.48775C9.52389 3.34862 10.1671 3.17239 10.555 3.10746C11.0279 3.0147 11.6806 2.98687 12.4942 3.00543C13.2982 3.03325 13.9698 3.10746 14.4333 3.22804C14.8212 3.33007 15.4455 3.53413 15.805 3.68254C16.1644 3.83095 16.7698 4.14632 17.1293 4.37821C17.4887 4.61937 17.9144 4.91619 18.359 5.27794L15.805 7.81016L15.332 7.48552C15.0671 7.30928 14.6793 7.07739 14.4523 6.96609C14.2347 6.86406 13.7901 6.70637 13.459 6.63217C13.1374 6.55796 12.5887 6.49303 12.2293 6.49303C11.8793 6.49303 11.3685 6.53941 11.0942 6.59506C10.8293 6.65072 10.2617 6.85478 9.84551 7.04957C9.4293 7.24435 8.87119 7.58755 8.61579 7.81944C8.35092 8.04205 7.93471 8.53366 7.66984 8.91395C7.41444 9.29425 7.10228 9.89716 6.9793 10.2496C6.82795 10.6578 6.73336 11.1957 6.70498 11.6873C6.6766 12.1882 6.70498 12.7169 6.79957 13.1251C6.87525 13.4775 7.0739 14.0433 7.23471 14.3773C7.40498 14.7112 7.71714 15.2028 7.93471 15.481C8.15227 15.75 8.50227 16.1118 8.71038 16.2695C8.91849 16.4364 9.27795 16.6776 9.51443 16.8167C9.75092 16.9466 10.1955 17.1506 10.5077 17.2527C10.8388 17.3733 11.4252 17.4753 11.9266 17.5031C12.5225 17.5309 12.9955 17.5031 13.4874 17.4011C13.8752 17.3176 14.4523 17.1321 14.7644 16.9837C15.0766 16.8353 15.5779 16.4921 15.8901 16.2138C16.1928 15.9448 16.5428 15.5553 16.6658 15.3512C16.7887 15.1471 16.9685 14.7297 17.082 14.4236C17.186 14.1175 17.2712 13.8578 17.2712 13.8485C17.2712 13.83 16.1171 13.8207 12.1631 13.8207L12.2104 10.3424L20.8658 10.296L20.932 10.5465C20.9793 10.6949 21.0076 11.4926 20.9982 12.3366C20.9887 13.663 20.9604 13.9877 20.7522 14.7483C20.6198 15.2306 20.3833 15.8984 20.232 16.2324C20.0806 16.5663 19.7874 17.0857 19.5793 17.3918C19.3806 17.6979 18.9739 18.1895 18.6901 18.4956C18.4063 18.7924 17.9144 19.2191 17.6023 19.4417C17.2901 19.655 16.6752 20.0075 16.2306 20.2116C15.786 20.4156 15.0387 20.6754 14.5752 20.7867C13.8752 20.9629 13.459 21 12.2577 21C11.0185 21 10.6685 20.9722 9.9874 20.7867C9.54281 20.6754 8.96579 20.4898 8.71038 20.3878C8.44552 20.2765 7.89687 19.9982 7.48065 19.7664C6.96038 19.4695 6.4212 19.0521 5.7685 18.4121C5.12525 17.7814 4.65228 17.2248 4.3212 16.6961C4.05634 16.2602 3.70634 15.5645 3.55499 15.1378C3.39418 14.7205 3.20499 13.9877 3.11985 13.5239C3.00634 12.9117 2.97796 12.3552 3.0158 11.5946C3.04418 10.9546 3.14823 10.2311 3.26175 9.78585C3.37526 9.37773 3.60228 8.72844 3.77255 8.34814C3.94282 7.96785 4.29282 7.34638 4.54823 6.96609C4.81309 6.58579 5.29552 6.0107 5.63606 5.67678C5.9766 5.34286 6.54417 4.86981 6.91309 4.6101C7.28201 4.35966 7.76444 4.06284 8.00092 3.94226C8.23741 3.83095 8.74822 3.61761 9.13605 3.48775Z" fill="white"/>
</svg>
