<svg width="105" height="102" viewBox="0 0 105 102" fill="none" xmlns="http://www.w3.org/2000/svg">
<path id="Vector" d="M82.4169 92.0824C81.6487 92.5976 80.7883 93.2028 80.5091 93.3937C80.2299 93.5847 78.3687 94.6095 76.3888 95.6382C74.3538 96.6765 71.9963 97.7884 71.0099 98.1602C70.039 98.5235 68.6283 99.0038 67.8672 99.2338C67.1144 99.4794 65.4099 99.9373 64.089 100.248C62.7764 100.575 60.548 100.994 59.1599 101.181C57.7717 101.368 55.6163 101.587 54.3743 101.634C53.1408 101.697 51.1051 101.691 49.8523 101.644C48.6079 101.612 46.933 101.491 46.0986 101.399C45.2641 101.307 43.5616 101.06 42.2871 100.824C41.021 100.603 38.4982 99.9553 36.6744 99.3723C34.859 98.8049 32.5195 97.9375 31.475 97.4563C30.4306 96.9751 28.8704 96.2096 27.9925 95.7389C27.1303 95.2598 25.6696 94.3803 24.7401 93.7767C23.8262 93.1647 22.4014 92.1653 21.5906 91.558C20.7798 90.9506 19.4472 89.8612 18.6484 89.1268C17.8339 88.4009 16.5612 87.1988 15.8247 86.4308C15.0725 85.6711 13.8177 84.2785 13.0199 83.3225C12.2221 82.3665 11.0007 80.7749 10.2964 79.7684C9.59204 78.7619 8.51088 77.0947 7.86887 76.0545C7.24245 75.006 6.19825 72.9972 5.53684 71.5857C4.89101 70.1658 3.96411 67.8525 3.49332 66.4587C3.01414 65.0493 2.38587 62.9165 2.1022 61.6829C1.81854 60.4493 1.46857 58.6084 1.3181 57.5842C1.18321 56.5517 1.01562 54.9741 0.94794 54.066C0.88026 53.158 0.822965 51.561 0.822337 50.5163C0.837288 49.4631 0.927228 47.5053 1.05231 46.1717C1.17739 44.838 1.45307 42.7397 1.67652 41.5137C1.91555 40.2793 2.50634 37.8702 3.03161 36.1597C3.5413 34.4576 4.37786 32.0566 4.89504 30.8529C5.41222 29.6492 6.27429 27.8172 6.82035 26.7788C7.3664 25.7404 8.27537 24.1443 8.82509 23.2245C9.38322 22.3203 10.4049 20.7839 11.1201 19.8351C11.8268 18.8707 12.9014 17.5068 13.5051 16.799C14.1089 16.0912 14.9584 15.1302 15.3885 14.697C15.8102 14.2483 16.7471 13.3003 17.4696 12.5887C18.1921 11.8771 19.5329 10.671 20.4435 9.89797C21.3542 9.12498 22.8545 7.9533 23.7688 7.29891C24.6831 6.64452 26.3597 5.53847 27.4874 4.86938C28.7157 4.12584 30.3529 3.28223 31.5802 2.76034C32.7056 2.27336 34.3968 1.64171 35.3461 1.3503C36.287 1.04332 37.7254 0.688834 38.5286 0.53662C39.3317 0.384406 40.594 0.225485 41.3528 0.177574C42.1117 0.129664 43.2842 0.139819 43.9915 0.220184C44.6905 0.284995 45.7816 0.479776 46.4194 0.617758C47.0501 0.779712 48.0742 1.11118 48.6845 1.38459C49.2949 1.658 50.2303 2.19808 50.7808 2.5842C51.3397 2.98589 52.1698 3.70345 52.6208 4.20354C53.2518 4.88786 53.8182 5.78794 54.9272 7.84213C55.969 9.77183 56.5632 11.0588 56.9571 12.2731C57.2634 13.2131 57.7956 15.0561 58.1368 16.3591C58.4625 17.6705 58.9254 19.8324 59.1323 21.1475C59.3393 22.4627 59.6019 24.5518 59.695 25.7677C59.788 26.9836 59.8827 29.0226 59.8823 30.289C59.8974 31.547 59.8688 33.6928 59.8156 35.0479C59.7469 36.4114 59.5603 39.0847 59.3744 41.0139C59.2041 42.9347 58.7997 46.248 58.5168 48.3703C58.2396 50.3756 57.8813 53.0073 57.6971 54.3598L57.6706 54.555C57.4963 55.8348 57.2267 58.1308 57.0754 59.6394C56.9085 61.1564 56.767 63.2425 56.7425 64.2406C56.7179 65.2386 56.7642 66.4798 56.8592 66.9912C56.9638 67.5577 57.1943 68.0965 57.4499 68.4208C57.6815 68.7379 58.2152 69.0929 58.7032 69.2515C59.28 69.4627 59.8674 69.5073 60.6238 69.3803C61.5217 69.2172 62.1233 68.9526 64.0397 67.9181C65.5665 67.0938 66.8631 66.2531 67.7834 65.5352C68.5563 64.917 69.8576 63.7121 70.6627 62.8554C71.4678 61.9987 72.5759 60.6971 73.115 59.9438C73.6624 59.2061 74.2912 58.2838 74.5332 57.912C74.7667 57.5247 75.3739 56.4131 75.8816 55.4155C76.3893 54.4179 77.1255 52.6136 77.524 51.4137C77.9225 50.2138 78.383 48.4579 78.5527 47.5423C78.7224 46.6267 78.9145 45.1563 78.9907 44.2912C79.0669 43.4261 79.0863 41.7475 79.0257 40.5543C78.9806 39.3527 78.7889 37.5067 78.5964 36.4048C78.4123 35.3184 77.9676 33.4884 77.6229 32.328C77.2697 31.152 76.5108 29.15 75.9478 27.8462C75.1471 26.0275 74.5758 24.9693 73.4274 23.1776C72.6043 21.9137 71.3048 20.103 70.5238 19.1781C69.7344 18.2376 67.7791 16.2183 66.1717 14.6944C64.1145 12.71 63.0169 11.534 62.4529 10.713C62.0209 10.0619 61.5084 9.11262 61.3343 8.60371C61.1602 8.09478 60.9726 7.15098 60.9446 6.50286C60.907 5.79965 61.0312 4.9488 61.2431 4.37219C61.449 3.85909 61.8705 3.14916 62.1928 2.81439C62.5067 2.46406 63.0951 2.02584 63.5002 1.80715C63.9208 1.58006 64.6891 1.32606 65.2094 1.24618C65.7452 1.15788 66.7666 1.14909 67.4656 1.2139C68.1646 1.2787 69.6166 1.62028 70.6969 1.98162C71.7689 2.32739 73.5257 3.0471 74.6025 3.55101C75.6722 4.0789 77.194 4.88524 77.9844 5.34287C78.7747 5.8005 80.0663 6.59043 80.8663 7.10316C81.6506 7.6243 83.1414 8.70864 84.1885 9.53009C85.2356 10.3515 86.7481 11.6251 87.5638 12.3907C88.3711 13.1406 89.6714 14.4684 90.474 15.3214C91.2693 16.1984 92.4942 17.6474 93.1949 18.5353C93.8955 19.4231 94.9454 20.846 95.5261 21.6982C96.0913 22.5587 97.2278 24.4775 98.0343 25.9714C98.8408 27.4654 99.8911 29.6718 100.363 30.844C100.835 32.0162 101.476 33.8004 101.776 34.8039C102.092 35.799 102.521 37.3762 102.74 38.3032C102.959 39.2302 103.324 41.0627 103.54 42.3934C103.771 43.7158 103.999 46.4866 104.078 48.534C104.157 50.5814 104.118 53.4162 103.987 54.8133C103.872 56.2021 103.611 58.292 103.41 59.446C103.223 60.5917 102.777 62.5609 102.435 63.7906C102.077 65.0288 101.736 66.037 101.664 66.0155C101.577 66.0025 101.465 65.1987 101.412 64.2427C101.358 63.2867 101.126 61.1413 100.932 59.4775C100.722 57.822 100.378 55.3952 100.131 54.0813C99.8846 52.7674 99.5431 51.2032 99.3809 50.5673C99.2031 49.9398 98.8249 48.9783 98.5225 48.4181C98.22 47.8578 97.7473 47.1685 97.4534 46.885C97.1595 46.6015 96.5227 46.2419 96.043 46.0988C95.4831 45.9188 94.88 45.8826 94.3694 46.0176C93.7641 46.1635 93.4057 46.357 92.8809 46.8011C92.5035 47.1455 91.9177 47.924 91.5572 48.5607C91.2123 49.1891 90.3219 51.6394 89.5632 53.9984C88.8285 56.3646 87.7826 59.4213 87.2547 60.7916C86.7352 62.1774 85.8421 64.2874 85.2782 65.5163C84.7059 66.7297 83.7288 68.6841 83.0917 69.852C82.4546 71.02 81.439 72.754 80.8426 73.699C80.2461 74.644 79.1465 76.2224 78.4002 77.1881C77.6539 78.1537 76.4248 79.6412 75.6592 80.4967C74.8937 81.3521 73.5721 82.6685 72.725 83.4474C71.8779 84.2262 70.5742 85.3521 69.8481 85.9451C68.8128 86.7853 67.6623 87.4868 64.6242 89.127C61.3836 90.8764 60.4859 91.3008 59.2453 91.649C58.429 91.8886 57.3442 92.1527 56.8395 92.2242C56.3277 92.3196 55.3483 92.4062 54.6362 92.4289C53.9325 92.4672 52.7815 92.3851 52.0813 92.2807C51.3883 92.1524 50.2852 91.8235 49.6353 91.5513C48.9769 91.2636 48.0175 90.7164 47.491 90.3374C46.9645 89.9584 46.2556 89.3162 45.9268 88.9309C45.5897 88.5301 45.1338 87.8718 44.9153 87.4672C44.6885 87.047 44.4027 86.2568 44.2669 85.707C44.1227 85.1418 43.9974 84.1643 43.9863 83.5473C43.9667 82.9148 44.0703 81.653 44.24 80.7374C44.4096 79.8218 44.9502 77.5805 45.4478 75.7443C45.9454 73.908 47.5594 68.4746 49.0419 63.6547C50.5244 58.8349 52.0558 53.5465 52.4564 51.9033C52.8654 50.2757 53.3771 47.8691 53.6137 46.5557C53.8587 45.2577 54.1679 43.2217 54.3135 42.0378C54.459 40.8538 54.6234 38.9965 54.6851 37.9182C54.7468 36.8398 54.7431 34.6712 54.663 33.1067C54.5829 31.5421 54.4031 29.5691 54.242 28.7115C54.0964 27.8455 53.7443 26.4479 53.4884 25.6013C53.1977 24.6528 52.6179 23.3179 52.0046 22.1818C51.2905 20.8591 50.7505 20.0452 50.1279 19.3764C49.6445 18.8536 48.7497 18.0907 48.1104 17.652C47.3656 17.1295 46.4495 16.6997 45.4746 16.422C44.4039 16.1158 43.4579 16.0035 42.319 16.0556C41.4331 16.0917 40.1864 16.2422 39.5499 16.4049C38.5981 16.6173 37.7784 16.9995 35.2005 18.4113C32.1708 20.067 31.9299 20.2172 30.4753 21.5852C29.6366 22.3797 28.3462 23.6792 27.619 24.4939C26.9002 25.3241 25.5981 27.0118 24.726 28.2664C23.854 29.521 22.6683 31.387 22.0743 32.4111C21.4887 33.4508 20.5247 35.3177 19.9536 36.5706C19.3825 37.8235 18.5194 39.8772 18.0598 41.1503C17.6073 42.3994 17.0928 43.9433 16.9301 44.5738C16.759 45.1887 16.4505 46.4807 16.2497 47.4131C16.0332 48.3539 15.7702 49.5812 15.6842 50.1301C15.5827 50.6873 15.4299 51.8952 15.3166 52.8407C15.2189 53.7778 15.0881 55.6973 15.0602 57.0991C15.0323 58.5009 15.0887 60.5807 15.1961 61.7487C15.319 62.9083 15.5202 64.5481 15.6658 65.4141C15.8114 66.2801 16.118 67.7425 16.3367 68.6695C16.5555 69.5965 17.0588 71.2742 17.4419 72.3938C17.9043 73.7721 18.6378 75.4662 19.7252 77.5924C20.6866 79.485 21.7427 81.3668 22.3811 82.2883C22.9618 83.1404 24.0596 84.5776 24.8322 85.487C25.5893 86.4047 26.8908 87.7721 27.6993 88.5616C28.5234 89.3427 30.1642 90.6676 31.3468 91.5164C32.5138 92.3736 34.2024 93.4516 35.0647 93.9307C35.9425 94.4014 37.2053 95.026 37.872 95.3293C38.5388 95.6326 40.1887 96.229 41.5245 96.6535C42.8603 97.0779 44.7128 97.565 45.6288 97.7337C46.5448 97.9024 48.167 98.112 49.2077 98.2134C50.2399 98.2992 51.8812 98.3578 52.8462 98.3191C53.7957 98.2889 55.2343 98.1956 56.0314 98.1069C56.8442 98.0098 58.4265 97.6982 59.5425 97.4173C60.6584 97.1364 62.4312 96.5813 63.4644 96.1843C64.4819 95.7958 66.3325 94.9374 67.5477 94.2814C68.7785 93.6169 70.5354 92.5479 71.4497 91.8935C72.364 91.2391 73.6175 90.2811 74.2274 89.7709C74.8373 89.2608 75.8857 88.333 76.5399 87.7186C77.1941 87.1041 78.4917 85.7806 79.3878 84.7944C80.2924 83.8237 81.6833 82.1886 82.4763 81.1977C83.2694 80.2068 84.6673 78.2865 85.5992 76.9192C86.5155 75.5604 87.8306 73.524 88.4929 72.4027C89.1636 71.297 90.0188 70.0113 90.3769 69.5567C90.8274 69.0121 91.3678 68.5595 92.0533 68.1895C92.8479 67.7605 93.2087 67.6461 93.7961 67.6907C94.2014 67.7332 94.8249 67.9192 95.1715 68.1139C95.5336 68.3002 96.0686 68.6948 96.3313 68.9951C96.6096 69.287 96.96 69.8615 97.1233 70.2758C97.2866 70.6901 97.431 71.5166 97.4493 72.1096C97.4676 72.7026 97.3184 73.7679 97.1102 74.4632C96.8936 75.1428 96.3322 76.4508 95.8532 77.3525C95.367 78.2782 94.4927 79.7149 93.9094 80.5724C93.3344 81.4455 92.2156 82.9137 91.4441 83.8327C90.6726 84.7516 89.393 86.1458 88.5855 86.9234C87.7863 87.7166 86.3916 88.972 85.4726 89.7294C84.5535 90.4868 83.1766 91.5517 82.4169 92.0824Z" fill="#FFF2F1"/>
</svg>
