<svg width="30" height="30" viewBox="0 0 30 30" fill="none" xmlns="http://www.w3.org/2000/svg">
<path fill-rule="evenodd" clip-rule="evenodd" d="M15 2C7.8203 2 2 7.8203 2 15C2 22.1797 7.8203 28 15 28C22.1797 28 28 22.1797 28 15C28 7.8203 22.1797 2 15 2ZM15.0003 12.1109C13.4049 12.1109 12.1118 13.4046 12.1118 15C12.1118 16.5954 13.4049 17.8891 15.0003 17.8891C16.5958 17.8891 17.8896 16.5954 17.8896 15C17.8896 13.4046 16.5958 12.1109 15.0003 12.1109ZM15.0003 19.4502C12.5424 19.4502 10.5499 17.4579 10.5499 15C10.5499 12.5421 12.5424 10.5498 15.0003 10.5498C17.4583 10.5498 19.4508 12.5421 19.4508 15C19.4508 17.4579 17.4583 19.4502 15.0003 19.4502ZM18.7619 10.9512C18.6477 10.7801 18.5868 10.579 18.5869 10.3733C18.5871 10.0976 18.6968 9.83326 18.8918 9.63834C19.0868 9.44342 19.3512 9.33386 19.6269 9.33373H19.6274C19.8331 9.33382 20.0341 9.39489 20.2051 9.50924C20.3761 9.62358 20.5093 9.78606 20.588 9.97613C20.6666 10.1662 20.6871 10.3753 20.6469 10.577C20.6067 10.7788 20.5076 10.964 20.3621 11.1094C20.2166 11.2548 20.0312 11.3538 19.8294 11.3938C19.6277 11.4339 19.4186 11.4132 19.2285 11.3344C19.0385 11.2556 18.8762 11.1223 18.7619 10.9512ZM9.88937 21.7563C10.1946 21.8752 10.6539 22.016 11.4989 22.0545C12.4122 22.0965 12.6858 22.1049 15.0003 22.1049C17.3149 22.1049 17.5893 22.0965 18.5029 22.0545C19.3479 22.016 19.8073 21.8753 20.1124 21.7563C20.517 21.5988 20.8061 21.4109 21.1093 21.1081C21.4124 20.8052 21.6 20.5165 21.7576 20.1119C21.8758 19.8067 22.0172 19.3474 22.0557 18.5024C22.0977 17.5881 22.1061 17.3145 22.1061 15.0001C22.1061 12.6857 22.0977 12.412 22.0557 11.4977C22.0173 10.6527 21.8765 10.1933 21.7576 9.88826C21.6 9.48363 21.4128 9.19451 21.1093 8.89139C20.8057 8.58826 20.517 8.39995 20.1124 8.24312C19.8064 8.12525 19.3479 7.98347 18.5029 7.94499C17.5885 7.90366 17.3138 7.89458 15.0003 7.89458C12.6869 7.89458 12.4124 7.90297 11.4989 7.94499C10.6539 7.9834 10.1945 8.12414 9.88937 8.24312C9.48404 8.39995 9.1956 8.58785 8.89246 8.89139C8.58932 9.19493 8.4017 9.48363 8.24417 9.88826C8.1263 10.1942 7.9845 10.6527 7.94602 11.4977C7.9047 12.412 7.89561 12.6857 7.89561 15.0001C7.89561 17.3145 7.904 17.5889 7.94602 18.5024C7.98443 19.3474 8.12519 19.8068 8.24417 20.1119C8.40101 20.5165 8.58891 20.8049 8.89246 21.1081C9.19601 21.4112 9.48473 21.5988 9.88937 21.7563ZM9.32338 6.78837C9.87398 6.57413 10.5045 6.42783 11.4271 6.38582C12.3517 6.34311 12.6474 6.33333 15.001 6.33333C17.3547 6.33333 17.6502 6.3438 18.5743 6.38582C19.4962 6.42714 20.1264 6.57413 20.678 6.78837C21.2472 7.00961 21.731 7.30566 22.2126 7.78802C22.6942 8.27037 22.9904 8.75341 23.2123 9.32326C23.4266 9.87384 23.5729 10.5042 23.6149 11.4269C23.6569 12.351 23.6667 12.6464 23.6667 15C23.6667 17.3536 23.6569 17.6483 23.6149 18.5731C23.5735 19.4957 23.4266 20.1258 23.2123 20.6767C22.9904 21.2466 22.695 21.7304 22.2126 22.212C21.7302 22.6936 21.2472 22.9898 20.6773 23.2116C20.1264 23.4259 19.4963 23.5722 18.5736 23.6142C17.6495 23.6569 17.354 23.6667 15.0003 23.6667C12.6467 23.6667 12.3517 23.6562 11.4271 23.6142C10.5045 23.5722 9.87502 23.4259 9.32338 23.2116C8.75316 22.9898 8.27038 22.6934 7.78807 22.212C7.30577 21.7306 7.00964 21.2466 6.78839 20.6767C6.57414 20.1258 6.42784 19.4958 6.38582 18.5731C6.34311 17.649 6.33333 17.3536 6.33333 15C6.33333 12.6464 6.34311 12.351 6.38582 11.4269C6.42784 10.5043 6.57414 9.87419 6.78839 9.32326C7.00964 8.75307 7.3057 8.26961 7.78807 7.78802C8.27045 7.30643 8.75316 7.00961 9.32338 6.78837Z" fill="white"/>
</svg>
