<svg width="29" height="29" viewBox="0 0 29 29" fill="none" xmlns="http://www.w3.org/2000/svg">
<path fill-rule="evenodd" clip-rule="evenodd" d="M14.4918 28.5246C22.097 28.5246 28.2623 22.1391 28.2623 14.2623C28.2623 6.38545 22.097 0 14.4918 0C6.88657 0 0.721313 6.38545 0.721313 14.2623C0.721313 22.1391 6.88657 28.5246 14.4918 28.5246ZM7.22099 6.92197C7.35563 6.70645 7.6494 6.44022 7.85749 6.31344C8.07782 6.19934 8.48175 6.09792 8.77552 6.08525C9.05705 6.08525 9.47323 6.16131 9.69355 6.25005C9.90164 6.3388 10.2077 6.59235 10.3545 6.79519C10.5014 6.99803 10.6483 7.39104 10.6973 7.66994C10.7462 8.0376 10.7095 8.30382 10.5504 8.62076C10.428 8.86164 10.1342 9.19126 9.90164 9.35607C9.58339 9.55891 9.30186 9.63497 8.83672 9.63497C8.48175 9.63497 8.02885 9.54623 7.82077 9.44481C7.62492 9.34339 7.34339 9.06448 7.20874 8.84896C7.06186 8.59541 6.96394 8.2024 6.96394 7.86011C6.96394 7.49246 7.04962 7.16284 7.22099 6.92197ZM15.6852 11.1563H12.3497V21.5519H15.6852C15.6901 21.0552 15.6944 20.5961 15.6984 20.1715L15.6985 20.1636C15.7452 15.2099 15.7475 14.9644 15.9729 14.5793C16.1075 14.3384 16.4136 14.0215 16.6461 13.8947C16.8787 13.7552 17.2949 13.6411 17.5764 13.6411C17.9069 13.6284 18.2007 13.7172 18.4332 13.8947C18.6168 14.0341 18.8616 14.3257 18.9596 14.5286C19.1064 14.8201 19.1432 15.5554 19.1799 18.2304L19.2044 21.5519H22.6317C22.6317 16.0372 22.5705 14.7694 22.4603 14.1989C22.2213 12.9256 21.5639 11.826 20.4284 11.207C19.0541 10.4953 16.565 11.0684 15.6852 12.3353V11.1563ZM7.08634 16.3541V21.5519H10.5137V11.1563H7.08634V16.3541Z" fill="#FFF2F1"/>
</svg>
