<svg width="26" height="26" viewBox="0 0 26 26" fill="none" xmlns="http://www.w3.org/2000/svg">
<path fill-rule="evenodd" clip-rule="evenodd" d="M13 26C20.1797 26 26 20.1797 26 13C26 5.8203 20.1797 0 13 0C5.8203 0 0 5.8203 0 13C0 20.1797 5.8203 26 13 26ZM6.136 6.30933C6.26311 6.11289 6.54044 5.87022 6.73689 5.75467C6.94489 5.65067 7.32622 5.55822 7.60356 5.54667C7.86933 5.54667 8.26222 5.616 8.47022 5.69689C8.66667 5.77778 8.95556 6.00889 9.09422 6.19378C9.23289 6.37867 9.37156 6.73689 9.41778 6.99111C9.464 7.32622 9.42933 7.56889 9.27911 7.85778C9.16356 8.07733 8.88622 8.37778 8.66667 8.528C8.36622 8.71289 8.10044 8.78222 7.66133 8.78222C7.32622 8.78222 6.89867 8.70133 6.70222 8.60889C6.51733 8.51644 6.25156 8.26222 6.12444 8.06578C5.98578 7.83467 5.89333 7.47644 5.89333 7.16444C5.89333 6.82933 5.97422 6.52889 6.136 6.30933ZM14.1267 10.1689H10.9778V19.6445H14.1267C14.1312 19.1917 14.1353 18.7732 14.1391 18.3862L14.1392 18.379C14.1833 13.8638 14.1854 13.64 14.3982 13.2889C14.5253 13.0694 14.8142 12.7805 15.0338 12.6649C15.2533 12.5378 15.6462 12.4338 15.912 12.4338C16.224 12.4223 16.5013 12.5031 16.7209 12.6649C16.8942 12.792 17.1253 13.0578 17.2178 13.2427C17.3564 13.5085 17.3911 14.1787 17.4258 16.6169L17.4489 19.6445H20.6844C20.6844 14.6178 20.6267 13.4623 20.5227 12.9423C20.297 11.7816 19.6764 10.7793 18.6044 10.2151C17.307 9.56641 14.9572 10.0888 14.1267 11.2436V10.1689ZM6.00889 14.9067V19.6444H9.24444V10.1689H6.00889V14.9067Z" fill="white"/>
</svg>
