<svg width="24" height="24" viewBox="0 0 24 24" fill="none" xmlns="http://www.w3.org/2000/svg">
<path fill-rule="evenodd" clip-rule="evenodd" d="M12 22C17.5228 22 22 17.5228 22 12C22 6.47715 17.5228 2 12 2C6.47715 2 2 6.47715 2 12C2 17.5228 6.47715 22 12 22ZM6.72 6.85333C6.81778 6.70222 7.03111 6.51556 7.18222 6.42667C7.34222 6.34667 7.63556 6.27556 7.84889 6.26667C8.05333 6.26667 8.35556 6.32 8.51556 6.38222C8.66667 6.44444 8.88889 6.62222 8.99556 6.76444C9.10222 6.90667 9.20889 7.18222 9.24444 7.37778C9.28 7.63556 9.25333 7.82222 9.13778 8.04444C9.04889 8.21333 8.83556 8.44444 8.66667 8.56C8.43556 8.70222 8.23111 8.75556 7.89333 8.75556C7.63556 8.75556 7.30667 8.69333 7.15556 8.62222C7.01333 8.55111 6.80889 8.35556 6.71111 8.20444C6.60444 8.02667 6.53333 7.75111 6.53333 7.51111C6.53333 7.25333 6.59556 7.02222 6.72 6.85333ZM12.8667 9.82225H10.4444V17.1111H12.8667C12.8702 16.7629 12.8733 16.4409 12.8762 16.1432L12.8763 16.1377C12.9102 12.6644 12.9119 12.4923 13.0756 12.2222C13.1733 12.0534 13.3956 11.8311 13.5644 11.7422C13.7333 11.6445 14.0356 11.5645 14.24 11.5645C14.48 11.5556 14.6933 11.6178 14.8622 11.7422C14.9956 11.84 15.1733 12.0445 15.2444 12.1867C15.3511 12.3911 15.3778 12.9067 15.4044 14.7822L15.4222 17.1111H17.9111C17.9111 13.2445 17.8667 12.3556 17.7867 11.9556C17.6131 11.0628 17.1357 10.2918 16.3111 9.8578C15.3131 9.35878 13.5055 9.76061 12.8667 10.6489V9.82225ZM6.62222 13.4667V17.1111H9.11111V9.82222H6.62222V13.4667Z" fill="white"/>
</svg>
