<svg width="375" height="3339" viewBox="0 0 375 3339" fill="none" xmlns="http://www.w3.org/2000/svg">
<g clip-path="url(#clip0_6941_2474)">
<g opacity="0.7">
<g filter="url(#filter0_f_6941_2474)">
<path d="M538.755 1517.14C538.755 1742.02 763.334 2010.92 613.815 2010.92C464.297 2010.92 419.732 1390.64 419.732 1165.77C419.732 940.887 677.791 1306.16 827.309 1306.16C976.827 1306.16 538.755 1292.26 538.755 1517.14Z" fill="#5B68DF"/>
</g>
<g filter="url(#filter1_f_6941_2474)">
<path d="M255 1163.15C255 1369.57 617.949 2300.59 514.016 2300.59C410.083 2300.59 551.88 1968.95 551.88 1762.53C551.88 1556.11 410.083 1553.07 514.016 1553.07C617.949 1553.07 255 956.734 255 1163.15Z" fill="#809FB4"/>
</g>
<g filter="url(#filter2_f_6941_2474)">
<path d="M467.525 1333.68C467.525 1418.93 525.48 1446.06 440.23 1446.06C354.98 1446.06 285.872 1376.95 285.872 1291.7C285.872 1206.45 354.98 1137.34 440.23 1137.34C525.48 1137.34 467.525 1248.43 467.525 1333.68Z" fill="url(#paint0_linear_6941_2474)"/>
</g>
<g filter="url(#filter3_f_6941_2474)">
<path d="M539.208 1029.39C539.208 1091.76 367.004 1305.44 873 1697.55C810.622 1697.55 255 1267.86 255 1205.48C255 1143.1 305.567 1092.54 367.945 1092.54C430.323 1092.54 539.208 967.008 539.208 1029.39Z" fill="url(#paint1_linear_6941_2474)" fill-opacity="0.3"/>
</g>
</g>
<g opacity="0.7">
<g filter="url(#filter4_f_6941_2474)">
<path d="M311.23 1754.25C311.23 1920.86 477.618 2120.08 366.842 2120.08C256.066 2120.08 223.048 1660.53 223.048 1493.92C223.048 1327.31 414.24 1597.94 525.016 1597.94C635.792 1597.94 311.23 1587.64 311.23 1754.25Z" fill="#5B68DF"/>
</g>
<g filter="url(#filter5_f_6941_2474)">
<path d="M101 1491.99C101 1644.92 369.904 2334.7 292.902 2334.7C215.899 2334.7 320.954 2088.99 320.954 1936.06C320.954 1783.12 215.899 1780.88 292.902 1780.88C369.904 1780.88 101 1339.05 101 1491.99Z" fill="#809FB4"/>
</g>
<g filter="url(#filter6_f_6941_2474)">
<path d="M258.457 1618.33C258.457 1681.49 301.395 1701.59 238.235 1701.59C175.074 1701.59 123.872 1650.39 123.872 1587.23C123.872 1524.06 175.074 1472.86 238.235 1472.86C301.395 1472.86 258.457 1555.17 258.457 1618.33Z" fill="url(#paint2_linear_6941_2474)"/>
</g>
<g filter="url(#filter7_f_6941_2474)">
<path d="M311.566 1392.88C311.566 1439.1 183.983 1597.41 558.868 1887.91C512.653 1887.91 101 1569.56 101 1523.35C101 1477.13 138.465 1439.67 184.68 1439.67C230.895 1439.67 311.566 1346.67 311.566 1392.88Z" fill="url(#paint3_linear_6941_2474)" fill-opacity="0.3"/>
</g>
</g>
<g opacity="0.7">
<g filter="url(#filter8_f_6941_2474)">
<path d="M155.755 2586.2C155.755 2811.07 380.334 3079.97 230.815 3079.97C81.2974 3079.97 36.7324 2459.7 36.7324 2234.82C36.7324 2009.94 294.791 2375.21 444.309 2375.21C593.827 2375.21 155.755 2361.32 155.755 2586.2Z" fill="#5B68DF"/>
</g>
<g filter="url(#filter9_f_6941_2474)">
<path d="M-128 2232.21C-128 2438.63 234.949 3369.64 131.016 3369.64C27.0834 3369.64 168.88 3038.01 168.88 2831.59C168.88 2625.17 27.0834 2622.13 131.016 2622.13C234.949 2622.13 -128 2025.79 -128 2232.21Z" fill="#809FB4"/>
</g>
<g filter="url(#filter10_f_6941_2474)">
<path d="M84.5254 2402.73C84.5254 2487.98 142.48 2515.11 57.2303 2515.11C-28.0197 2515.11 -97.1285 2446 -97.1285 2360.75C-97.1285 2275.5 -28.0197 2206.4 57.2303 2206.4C142.48 2206.4 84.5254 2317.48 84.5254 2402.73Z" fill="url(#paint4_linear_6941_2474)"/>
</g>
<g filter="url(#filter11_f_6941_2474)">
<path d="M156.208 2098.44C156.208 2160.82 -15.9957 2374.5 490 2766.6C427.622 2766.6 -128 2336.92 -128 2274.54C-128 2212.16 -77.4326 2161.59 -15.0546 2161.59C47.3235 2161.59 156.208 2036.06 156.208 2098.44Z" fill="url(#paint5_linear_6941_2474)" fill-opacity="0.3"/>
</g>
</g>
<g opacity="0.7">
<g filter="url(#filter12_f_6941_2474)">
<path d="M164.23 786.252C164.23 952.862 330.618 1152.08 219.842 1152.08C109.066 1152.08 76.0481 692.532 76.0481 525.923C76.0481 359.314 267.24 629.937 378.016 629.937C488.792 629.937 164.23 619.643 164.23 786.252Z" fill="#5B68DF"/>
</g>
<g filter="url(#filter13_f_6941_2474)">
<path d="M-46 523.987C-46 676.921 222.904 1366.7 145.902 1366.7C68.8993 1366.7 173.954 1120.99 173.954 968.058C173.954 815.125 68.8993 812.875 145.902 812.875C222.904 812.875 -46 371.054 -46 523.987Z" fill="#809FB4"/>
</g>
<g filter="url(#filter14_f_6941_2474)">
<path d="M111.457 650.326C111.457 713.487 154.395 733.588 91.2348 733.588C28.0742 733.588 -23.1276 682.386 -23.1276 619.225C-23.1276 556.065 28.0742 504.863 91.2348 504.863C154.395 504.863 111.457 587.166 111.457 650.326Z" fill="url(#paint6_linear_6941_2474)"/>
</g>
<g filter="url(#filter15_f_6941_2474)">
<path d="M164.566 424.881C164.566 471.096 36.9825 629.406 411.868 919.915C365.653 919.915 -46 601.564 -46 555.349C-46 509.134 -8.53527 471.669 37.6798 471.669C83.8949 471.669 164.566 378.666 164.566 424.881Z" fill="url(#paint7_linear_6941_2474)" fill-opacity="0.3"/>
</g>
</g>
<g opacity="0.8">
<g filter="url(#filter16_f_6941_2474)">
<path d="M369.345 309.37C369.345 387.459 504.165 480.834 414.405 480.834C324.646 480.834 297.893 265.443 297.893 187.354C297.893 109.265 452.811 236.105 542.57 236.105C632.33 236.105 369.345 231.28 369.345 309.37Z" fill="#5B68DF"/>
</g>
<g filter="url(#filter17_f_6941_2474)">
<path d="M199 186.447C199 258.126 416.887 581.422 354.494 581.422C292.1 581.422 377.224 466.261 377.224 394.582C377.224 322.902 292.1 321.848 354.494 321.848C416.887 321.848 199 114.768 199 186.447Z" fill="#809FB4"/>
</g>
<g filter="url(#filter18_f_6941_2474)">
<path d="M326.584 69.8601C326.584 88.3743 361.376 94.2664 310.198 94.2664C259.02 94.2664 217.533 79.2577 217.533 60.7435C217.533 42.2294 259.02 27.2207 310.198 27.2207C361.376 27.2207 326.584 51.346 326.584 69.8601Z" fill="url(#paint8_linear_6941_2474)"/>
</g>
<g filter="url(#filter19_f_6941_2474)">
<path d="M369.617 3.77574C369.617 17.3227 266.239 63.7278 570 148.884C532.553 148.884 199 55.5666 199 42.0196C199 28.4727 229.357 17.4907 266.804 17.4907C304.251 17.4907 369.617 -9.7712 369.617 3.77574Z" fill="url(#paint9_linear_6941_2474)" fill-opacity="0.3"/>
</g>
</g>
</g>
<defs>
<filter id="filter0_f_6941_2474" x="-189.989" y="482.879" width="1658.12" height="2137.76" filterUnits="userSpaceOnUse" color-interpolation-filters="sRGB">
<feFlood flood-opacity="0" result="BackgroundImageFix"/>
<feBlend mode="normal" in="SourceGraphic" in2="BackgroundImageFix" result="shape"/>
<feGaussianBlur stdDeviation="304.86" result="effect1_foregroundBlur_6941_2474"/>
</filter>
<filter id="filter1_f_6941_2474" x="-254" y="610.718" width="1314.88" height="2198.87" filterUnits="userSpaceOnUse" color-interpolation-filters="sRGB">
<feFlood flood-opacity="0" result="BackgroundImageFix"/>
<feBlend mode="normal" in="SourceGraphic" in2="BackgroundImageFix" result="shape"/>
<feGaussianBlur stdDeviation="254.5" result="effect1_foregroundBlur_6941_2474"/>
</filter>
<filter id="filter2_f_6941_2474" x="85.8715" y="937.34" width="600.896" height="708.718" filterUnits="userSpaceOnUse" color-interpolation-filters="sRGB">
<feFlood flood-opacity="0" result="BackgroundImageFix"/>
<feBlend mode="normal" in="SourceGraphic" in2="BackgroundImageFix" result="shape"/>
<feGaussianBlur stdDeviation="100" result="effect1_foregroundBlur_6941_2474"/>
</filter>
<filter id="filter3_f_6941_2474" x="155" y="912" width="818" height="885.549" filterUnits="userSpaceOnUse" color-interpolation-filters="sRGB">
<feFlood flood-opacity="0" result="BackgroundImageFix"/>
<feBlend mode="normal" in="SourceGraphic" in2="BackgroundImageFix" result="shape"/>
<feGaussianBlur stdDeviation="50" result="effect1_foregroundBlur_6941_2474"/>
</filter>
<filter id="filter4_f_6941_2474" x="-386.673" y="829.994" width="1544.46" height="1899.81" filterUnits="userSpaceOnUse" color-interpolation-filters="sRGB">
<feFlood flood-opacity="0" result="BackgroundImageFix"/>
<feBlend mode="normal" in="SourceGraphic" in2="BackgroundImageFix" result="shape"/>
<feGaussianBlur stdDeviation="304.86" result="effect1_foregroundBlur_6941_2474"/>
</filter>
<filter id="filter5_f_6941_2474" x="-408" y="950.807" width="1237.95" height="1892.89" filterUnits="userSpaceOnUse" color-interpolation-filters="sRGB">
<feFlood flood-opacity="0" result="BackgroundImageFix"/>
<feBlend mode="normal" in="SourceGraphic" in2="BackgroundImageFix" result="shape"/>
<feGaussianBlur stdDeviation="254.5" result="effect1_foregroundBlur_6941_2474"/>
</filter>
<filter id="filter6_f_6941_2474" x="-76.1276" y="1272.86" width="548.841" height="628.725" filterUnits="userSpaceOnUse" color-interpolation-filters="sRGB">
<feFlood flood-opacity="0" result="BackgroundImageFix"/>
<feBlend mode="normal" in="SourceGraphic" in2="BackgroundImageFix" result="shape"/>
<feGaussianBlur stdDeviation="100" result="effect1_foregroundBlur_6941_2474"/>
</filter>
<filter id="filter7_f_6941_2474" x="1" y="1280" width="657.868" height="707.915" filterUnits="userSpaceOnUse" color-interpolation-filters="sRGB">
<feFlood flood-opacity="0" result="BackgroundImageFix"/>
<feBlend mode="normal" in="SourceGraphic" in2="BackgroundImageFix" result="shape"/>
<feGaussianBlur stdDeviation="50" result="effect1_foregroundBlur_6941_2474"/>
</filter>
<filter id="filter8_f_6941_2474" x="-572.989" y="1551.93" width="1658.12" height="2137.76" filterUnits="userSpaceOnUse" color-interpolation-filters="sRGB">
<feFlood flood-opacity="0" result="BackgroundImageFix"/>
<feBlend mode="normal" in="SourceGraphic" in2="BackgroundImageFix" result="shape"/>
<feGaussianBlur stdDeviation="304.86" result="effect1_foregroundBlur_6941_2474"/>
</filter>
<filter id="filter9_f_6941_2474" x="-637" y="1679.77" width="1314.88" height="2198.87" filterUnits="userSpaceOnUse" color-interpolation-filters="sRGB">
<feFlood flood-opacity="0" result="BackgroundImageFix"/>
<feBlend mode="normal" in="SourceGraphic" in2="BackgroundImageFix" result="shape"/>
<feGaussianBlur stdDeviation="254.5" result="effect1_foregroundBlur_6941_2474"/>
</filter>
<filter id="filter10_f_6941_2474" x="-297.128" y="2006.4" width="600.896" height="708.718" filterUnits="userSpaceOnUse" color-interpolation-filters="sRGB">
<feFlood flood-opacity="0" result="BackgroundImageFix"/>
<feBlend mode="normal" in="SourceGraphic" in2="BackgroundImageFix" result="shape"/>
<feGaussianBlur stdDeviation="100" result="effect1_foregroundBlur_6941_2474"/>
</filter>
<filter id="filter11_f_6941_2474" x="-228" y="1981.06" width="818" height="885.549" filterUnits="userSpaceOnUse" color-interpolation-filters="sRGB">
<feFlood flood-opacity="0" result="BackgroundImageFix"/>
<feBlend mode="normal" in="SourceGraphic" in2="BackgroundImageFix" result="shape"/>
<feGaussianBlur stdDeviation="50" result="effect1_foregroundBlur_6941_2474"/>
</filter>
<filter id="filter12_f_6941_2474" x="-533.673" y="-138.006" width="1544.46" height="1899.81" filterUnits="userSpaceOnUse" color-interpolation-filters="sRGB">
<feFlood flood-opacity="0" result="BackgroundImageFix"/>
<feBlend mode="normal" in="SourceGraphic" in2="BackgroundImageFix" result="shape"/>
<feGaussianBlur stdDeviation="304.86" result="effect1_foregroundBlur_6941_2474"/>
</filter>
<filter id="filter13_f_6941_2474" x="-555" y="-17.1934" width="1237.95" height="1892.89" filterUnits="userSpaceOnUse" color-interpolation-filters="sRGB">
<feFlood flood-opacity="0" result="BackgroundImageFix"/>
<feBlend mode="normal" in="SourceGraphic" in2="BackgroundImageFix" result="shape"/>
<feGaussianBlur stdDeviation="254.5" result="effect1_foregroundBlur_6941_2474"/>
</filter>
<filter id="filter14_f_6941_2474" x="-223.128" y="304.863" width="548.841" height="628.725" filterUnits="userSpaceOnUse" color-interpolation-filters="sRGB">
<feFlood flood-opacity="0" result="BackgroundImageFix"/>
<feBlend mode="normal" in="SourceGraphic" in2="BackgroundImageFix" result="shape"/>
<feGaussianBlur stdDeviation="100" result="effect1_foregroundBlur_6941_2474"/>
</filter>
<filter id="filter15_f_6941_2474" x="-146" y="312" width="657.868" height="707.915" filterUnits="userSpaceOnUse" color-interpolation-filters="sRGB">
<feFlood flood-opacity="0" result="BackgroundImageFix"/>
<feBlend mode="normal" in="SourceGraphic" in2="BackgroundImageFix" result="shape"/>
<feGaussianBlur stdDeviation="50" result="effect1_foregroundBlur_6941_2474"/>
</filter>
<filter id="filter16_f_6941_2474" x="-311.828" y="-447.774" width="1482.79" height="1538.33" filterUnits="userSpaceOnUse" color-interpolation-filters="sRGB">
<feFlood flood-opacity="0" result="BackgroundImageFix"/>
<feBlend mode="normal" in="SourceGraphic" in2="BackgroundImageFix" result="shape"/>
<feGaussianBlur stdDeviation="304.86" result="effect1_foregroundBlur_6941_2474"/>
</filter>
<filter id="filter17_f_6941_2474" x="-310" y="-337.636" width="1196.22" height="1428.06" filterUnits="userSpaceOnUse" color-interpolation-filters="sRGB">
<feFlood flood-opacity="0" result="BackgroundImageFix"/>
<feBlend mode="normal" in="SourceGraphic" in2="BackgroundImageFix" result="shape"/>
<feGaussianBlur stdDeviation="254.5" result="effect1_foregroundBlur_6941_2474"/>
</filter>
<filter id="filter18_f_6941_2474" x="17.5327" y="-172.779" width="520.602" height="467.046" filterUnits="userSpaceOnUse" color-interpolation-filters="sRGB">
<feFlood flood-opacity="0" result="BackgroundImageFix"/>
<feBlend mode="normal" in="SourceGraphic" in2="BackgroundImageFix" result="shape"/>
<feGaussianBlur stdDeviation="100" result="effect1_foregroundBlur_6941_2474"/>
</filter>
<filter id="filter19_f_6941_2474" x="99" y="-100" width="571" height="348.884" filterUnits="userSpaceOnUse" color-interpolation-filters="sRGB">
<feFlood flood-opacity="0" result="BackgroundImageFix"/>
<feBlend mode="normal" in="SourceGraphic" in2="BackgroundImageFix" result="shape"/>
<feGaussianBlur stdDeviation="50" result="effect1_foregroundBlur_6941_2474"/>
</filter>
<linearGradient id="paint0_linear_6941_2474" x1="440.23" y1="1137.34" x2="440.23" y2="1446.06" gradientUnits="userSpaceOnUse">
<stop stop-color="#513DAA"/>
<stop offset="1" stop-color="#FFC56F" stop-opacity="0.46"/>
</linearGradient>
<linearGradient id="paint1_linear_6941_2474" x1="367.945" y1="1092.54" x2="367.945" y2="1318.43" gradientUnits="userSpaceOnUse">
<stop stop-color="#9555E2"/>
<stop offset="0.640583" stop-color="#D27769" stop-opacity="0.359417"/>
<stop offset="1" stop-color="#F58A25" stop-opacity="0"/>
<stop offset="1" stop-color="#7061A3"/>
</linearGradient>
<linearGradient id="paint2_linear_6941_2474" x1="238.235" y1="1472.86" x2="238.235" y2="1701.59" gradientUnits="userSpaceOnUse">
<stop stop-color="#513DAA"/>
<stop offset="1" stop-color="#FFC56F" stop-opacity="0.46"/>
</linearGradient>
<linearGradient id="paint3_linear_6941_2474" x1="184.68" y1="1439.67" x2="184.68" y2="1607.03" gradientUnits="userSpaceOnUse">
<stop stop-color="#9555E2"/>
<stop offset="0.640583" stop-color="#D27769" stop-opacity="0.359417"/>
<stop offset="1" stop-color="#F58A25" stop-opacity="0"/>
<stop offset="1" stop-color="#7061A3"/>
</linearGradient>
<linearGradient id="paint4_linear_6941_2474" x1="57.2303" y1="2206.4" x2="57.2303" y2="2515.11" gradientUnits="userSpaceOnUse">
<stop stop-color="#513DAA"/>
<stop offset="1" stop-color="#FFC56F" stop-opacity="0.46"/>
</linearGradient>
<linearGradient id="paint5_linear_6941_2474" x1="-15.0547" y1="2161.59" x2="-15.0547" y2="2387.48" gradientUnits="userSpaceOnUse">
<stop stop-color="#9555E2"/>
<stop offset="0.640583" stop-color="#D27769" stop-opacity="0.359417"/>
<stop offset="1" stop-color="#F58A25" stop-opacity="0"/>
<stop offset="1" stop-color="#7061A3"/>
</linearGradient>
<linearGradient id="paint6_linear_6941_2474" x1="91.2348" y1="504.863" x2="91.2348" y2="733.588" gradientUnits="userSpaceOnUse">
<stop stop-color="#513DAA"/>
<stop offset="1" stop-color="#FFC56F" stop-opacity="0.46"/>
</linearGradient>
<linearGradient id="paint7_linear_6941_2474" x1="37.6797" y1="471.67" x2="37.6797" y2="639.029" gradientUnits="userSpaceOnUse">
<stop stop-color="#9555E2"/>
<stop offset="0.640583" stop-color="#D27769" stop-opacity="0.359417"/>
<stop offset="1" stop-color="#F58A25" stop-opacity="0"/>
<stop offset="1" stop-color="#7061A3"/>
</linearGradient>
<linearGradient id="paint8_linear_6941_2474" x1="310.198" y1="27.2207" x2="310.198" y2="94.2664" gradientUnits="userSpaceOnUse">
<stop stop-color="#513DAA"/>
<stop offset="1" stop-color="#FFC56F" stop-opacity="0.46"/>
</linearGradient>
<linearGradient id="paint9_linear_6941_2474" x1="266.804" y1="17.4909" x2="266.804" y2="66.5487" gradientUnits="userSpaceOnUse">
<stop stop-color="#9555E2"/>
<stop offset="0.640583" stop-color="#D27769" stop-opacity="0.359417"/>
<stop offset="1" stop-color="#F58A25" stop-opacity="0"/>
<stop offset="1" stop-color="#7061A3"/>
</linearGradient>
<clipPath id="clip0_6941_2474">
<rect width="375" height="3339" fill="white"/>
</clipPath>
</defs>
</svg>
