<svg width="615" height="506" viewBox="0 0 615 506" fill="none" xmlns="http://www.w3.org/2000/svg">
<g clip-path="url(#clip0_6574_3102)">
<g opacity="0.7">
<g filter="url(#filter0_f_6574_3102)">
<path d="M67.6594 340.323C67.6594 520.591 435.417 736.146 190.575 736.146C-54.2671 736.146 -127.244 238.92 -127.244 58.6516C-127.244 -121.617 295.337 171.193 540.179 171.193C785.021 171.193 67.6594 160.055 67.6594 340.323Z" fill="#5B68DF"/>
</g>
<g filter="url(#filter1_f_6574_3102)">
<path d="M-397 56.557C-397 222.028 197.344 968.353 27.1497 968.353C-143.045 968.353 89.1526 702.505 89.1526 537.034C89.1526 371.563 -143.045 369.128 27.1497 369.128C197.344 369.128 -397 -108.914 -397 56.557Z" fill="#809FB4"/>
</g>
<g filter="url(#filter2_f_6574_3102)">
<path d="M-48.9816 569.432C-48.9816 709.033 45.9218 753.46 -93.6785 753.46C-233.279 753.46 -346.447 640.292 -346.447 500.692C-346.447 361.091 -233.279 247.923 -93.6785 247.923C45.9218 247.923 -48.9816 429.832 -48.9816 569.432Z" fill="url(#paint0_linear_6574_3102)"/>
</g>
<g filter="url(#filter3_f_6574_3102)">
<path d="M68.4023 71.1437C68.4023 173.29 -213.588 523.194 615 1165.29C512.853 1165.29 -397 461.657 -397 359.51C-397 257.363 -314.194 174.557 -212.047 174.557C-109.901 174.557 68.4023 -31.0029 68.4023 71.1437Z" fill="url(#paint1_linear_6574_3102)" fill-opacity="0.3"/>
</g>
</g>
</g>
<defs>
<filter id="filter0_f_6574_3102" x="-736.965" y="-609.721" width="1937.8" height="1955.59" filterUnits="userSpaceOnUse" color-interpolation-filters="sRGB">
<feFlood flood-opacity="0" result="BackgroundImageFix"/>
<feBlend mode="normal" in="SourceGraphic" in2="BackgroundImageFix" result="shape"/>
<feGaussianBlur stdDeviation="304.86" result="effect1_foregroundBlur_6574_3102"/>
</filter>
<filter id="filter1_f_6574_3102" x="-906" y="-487.262" width="1504.15" height="1964.61" filterUnits="userSpaceOnUse" color-interpolation-filters="sRGB">
<feFlood flood-opacity="0" result="BackgroundImageFix"/>
<feBlend mode="normal" in="SourceGraphic" in2="BackgroundImageFix" result="shape"/>
<feGaussianBlur stdDeviation="254.5" result="effect1_foregroundBlur_6574_3102"/>
</filter>
<filter id="filter2_f_6574_3102" x="-546.447" y="47.9229" width="728.975" height="905.537" filterUnits="userSpaceOnUse" color-interpolation-filters="sRGB">
<feFlood flood-opacity="0" result="BackgroundImageFix"/>
<feBlend mode="normal" in="SourceGraphic" in2="BackgroundImageFix" result="shape"/>
<feGaussianBlur stdDeviation="100" result="effect1_foregroundBlur_6574_3102"/>
</filter>
<filter id="filter3_f_6574_3102" x="-497" y="-57.3262" width="1212" height="1322.62" filterUnits="userSpaceOnUse" color-interpolation-filters="sRGB">
<feFlood flood-opacity="0" result="BackgroundImageFix"/>
<feBlend mode="normal" in="SourceGraphic" in2="BackgroundImageFix" result="shape"/>
<feGaussianBlur stdDeviation="50" result="effect1_foregroundBlur_6574_3102"/>
</filter>
<linearGradient id="paint0_linear_6574_3102" x1="-93.6785" y1="247.923" x2="-93.6785" y2="753.46" gradientUnits="userSpaceOnUse">
<stop stopColor="#513DAA"/>
<stop offset="1" stopColor="#FFC56F" stop-opacity="0.46"/>
</linearGradient>
<linearGradient id="paint1_linear_6574_3102" x1="-212.048" y1="174.558" x2="-212.048" y2="544.464" gradientUnits="userSpaceOnUse">
<stop stopColor="#9555E2"/>
<stop offset="0.640583" stopColor="#D27769" stop-opacity="0.359417"/>
<stop offset="1" stopColor="#F58A25" stop-opacity="0"/>
<stop offset="1" stopColor="#7061A3"/>
</linearGradient>
<clipPath id="clip0_6574_3102">
<rect width="615" height="506" fill="white"/>
</clipPath>
</defs>
</svg>
