<svg width="20" height="19" viewBox="0 0 20 19" fill="none" xmlns="http://www.w3.org/2000/svg">
<path id="Star 1" d="M8.81957 1.01455C9.19111 -0.128951 10.8089 -0.128952 11.1804 1.01455L12.5544 5.24315C12.7205 5.75454 13.1971 6.10077 13.7348 6.10077H18.181C19.3833 6.10077 19.8833 7.63934 18.9105 8.34606L15.3135 10.9595C14.8785 11.2755 14.6964 11.8358 14.8626 12.3471L16.2365 16.5757C16.6081 17.7192 15.2993 18.6701 14.3266 17.9634L10.7295 15.35C10.2945 15.0339 9.70546 15.0339 9.27045 15.35L5.67339 17.9634C4.70067 18.6701 3.39188 17.7192 3.76343 16.5758L5.13738 12.3471C5.30354 11.8358 5.12152 11.2755 4.6865 10.9595L1.08944 8.34606C0.116722 7.63934 0.616632 6.10077 1.81898 6.10077H6.26519C6.8029 6.10077 7.27945 5.75454 7.44561 5.24315L8.81957 1.01455Z" fill="#8312EF"/>
</svg>
