<svg width="24" height="20" viewBox="0 0 24 20" fill="none" xmlns="http://www.w3.org/2000/svg">
<path d="M12.9338 4.37413C17.7238 2.53632 21.8187 0.998554 22.0209 0.948546C22.2232 0.898537 22.5265 0.886035 22.7034 0.923541C22.8804 0.97355 23.0952 1.11107 23.1963 1.2486C23.2848 1.38612 23.3606 1.66117 23.3606 1.8737C23.3606 2.08624 22.5644 5.98691 21.5912 10.5627C20.4032 16.1512 19.7586 18.9766 19.607 19.1767C19.4806 19.3392 19.2657 19.5142 19.1267 19.5642C18.9877 19.6142 18.6717 19.5892 18.4316 19.5142C18.1915 19.4267 16.144 18.0265 13.8817 16.3887C11.6194 14.7509 9.7363 13.3757 9.68574 13.3257C9.63519 13.2882 11.6447 11.4128 14.1724 9.17496C16.6875 6.93707 18.9119 4.94923 19.1267 4.7742C19.3921 4.54916 19.468 4.41164 19.3795 4.31162C19.291 4.22411 19.1394 4.22411 18.9371 4.28662C18.7602 4.34913 15.9797 6.04942 12.7443 8.06227C9.5088 10.0751 6.80416 11.7504 6.74097 11.7754C6.67778 11.8004 5.42656 11.4503 3.96049 11.0003C2.49443 10.5502 1.18002 10.0876 1.02836 9.9876C0.864056 9.90008 0.737671 9.71255 0.737671 9.58753C0.737671 9.47501 0.864056 9.24997 1.01572 9.09994C1.18002 8.93742 1.96361 8.57485 2.75983 8.2623C3.55606 7.96225 8.13121 6.21195 12.9338 4.37413Z" fill="#FFF2F1"/>
</svg>
