<svg width="21" height="22" viewBox="0 0 21 22" fill="none" xmlns="http://www.w3.org/2000/svg">
<path fill-rule="evenodd" clip-rule="evenodd" d="M0.775084 1.08089C0.829998 1.15868 1.56677 2.22722 2.40879 3.45364C2.79624 4.01798 3.35181 4.82746 3.95154 5.70128C4.65515 6.72647 5.41954 7.84022 6.04457 8.75059L6.19706 8.97268L6.19804 8.97411C7.29356 10.5698 8.25568 11.9711 8.37157 12.1438C8.57978 12.4482 8.59123 12.471 8.56148 12.5191C8.54546 12.5488 7.97573 13.2147 7.29845 14.0018C6.95805 14.3974 6.37835 15.0716 5.71972 15.8376C5.06792 16.5956 4.33882 17.4436 3.68783 18.2004C2.45361 19.6328 1.31064 20.9638 1.04153 21.2772L1.00161 21.3237L0.697288 21.6783C0.850591 21.7012 1.24414 21.7104 1.67202 21.7127L2.44997 21.715C3.17759 20.8706 4.27587 19.5962 5.35585 18.3377L5.56519 18.0943C6.60139 16.8894 7.77743 15.5219 8.25945 14.9628C8.43259 14.7619 8.60003 14.5673 8.74821 14.3951C9.04063 14.0552 9.25799 13.8025 9.29596 13.7615C9.35087 13.6975 9.39892 13.6517 9.4035 13.6586C9.40479 13.6605 9.42292 13.6866 9.45405 13.7314C9.53301 13.8451 9.69562 14.0791 9.87942 14.345C10.138 14.7157 11.2683 16.3585 12.3918 17.9945C12.8527 18.6657 13.2986 19.315 13.6739 19.8614C14.2133 20.6468 14.6067 21.2196 14.689 21.3397L14.943 21.7127C19.0913 21.7127 20.4436 21.7058 20.6243 21.6944C20.8028 21.6852 20.9492 21.6738 20.9492 21.6669C20.9492 21.66 20.7616 21.3832 20.5328 21.0491C20.3063 20.7151 18.7481 18.4453 17.0709 16.0039C15.396 13.5625 13.7921 11.224 13.5083 10.8099C13.2246 10.3957 12.9455 9.9793 12.886 9.88777L12.7807 9.72303C13.1445 9.28829 14.117 8.15111 15.1741 6.92011C15.4192 6.63478 15.6923 6.31675 15.9783 5.98382C16.9283 4.8777 18.0196 3.60705 18.6932 2.82442C19.9814 1.32571 20.2788 0.96877 20.2468 0.955041C20.2239 0.945889 19.8304 0.939024 19.3705 0.936736L18.5353 0.934448C17.6565 1.95617 16.9283 2.80229 16.3215 3.50742C15.7528 4.1682 15.2906 4.70518 14.911 5.14684C14.2713 5.89307 13.5231 6.76161 13.07 7.2876C12.9688 7.40511 12.8823 7.50553 12.8151 7.58366C12.4444 8.01153 12.1035 8.40051 12.0554 8.44856C12.0074 8.49661 11.9616 8.53322 11.9524 8.52864C11.9433 8.52407 11.0372 7.21299 9.93892 5.6159C8.84063 4.01652 7.66912 2.30959 7.33506 1.82223L6.72871 0.936736H0.672119L0.775084 1.08089ZM3.14029 2.31465C3.14945 2.33066 3.28216 2.52515 3.43546 2.74481C3.4806 2.80949 3.712 3.14076 4.08393 3.67322C4.97519 4.94916 6.67343 7.38037 8.54936 10.0667C9.51847 11.4533 10.4894 12.8429 11.3619 14.0917C12.8852 16.2719 14.1085 18.0227 14.4984 18.5784C15.1093 19.4525 15.6447 20.2144 15.6859 20.2716C15.7271 20.3288 15.782 20.3815 15.8095 20.3906C15.8369 20.3975 16.4547 20.4043 17.1801 20.4066C18.2257 20.4089 18.5026 20.4021 18.5003 20.3815C18.5003 20.3654 15.6608 16.2903 12.1897 11.3252L5.88143 2.29863C3.39885 2.28719 3.12656 2.29177 3.14029 2.31465Z" fill="#FFF2F1"/>
</svg>
